<?xml version="1.0" encoding="utf-8"?>
<!-- Generator: Adobe Illustrator 25.2.1, SVG Export Plug-In . SVG Version: 6.00 Build 0)  -->
<svg version="1.1" id="Layer_1" xmlns="http://www.w3.org/2000/svg" xmlns:xlink="http://www.w3.org/1999/xlink" x="0px" y="0px"
	 viewBox="0 0 168.6 37.9" style="enable-background:new 0 0 168.6 37.9;" xml:space="preserve">
<style type="text/css">
	.st0{fill:#1D1D1C;}
	.st1{fill:#020203;}
</style>
<path class="st0" d="M4.8,4.5c-0.1,0-0.1,0.1-0.2,0.1c-0.1,0-0.2,0-0.3,0c0,0,0,0,0,0l0,0c0,0,0,0,0,0C4.4,4.8,4.6,4.9,4.7,5
	C4.8,5,4.9,4.9,5,4.8c0-0.1,0.1-0.1,0-0.2C5,4.5,4.9,4.5,4.8,4.5z M1,9.4c0.2,0,0.3,0,0.5-0.1C1.6,9.2,1.6,9.1,1.6,9
	c0-0.1,0-0.2-0.1-0.2C1.5,8.8,1.4,9,1.4,9C1.3,9.1,1.2,9.1,1.1,9.2l0,0c-0.1,0-0.1,0-0.1,0.1C1,9.3,1,9.4,1,9.4z M1.3,8.8
	c0.1-0.1,0.2-0.2,0.2-0.3c0-0.1,0.1-0.3,0.1-0.4c0,0,0,0,0,0c0,0-0.1,0.1-0.1,0.1c-0.1,0-0.2,0.1-0.2,0.1c-0.1,0,0-0.1,0-0.1
	C1.2,8.1,1.4,8,1.5,7.8c0,0,0-0.1,0.1-0.1c0,0,0,0,0,0c0-0.1,0-0.3,0-0.4c0-0.1-0.1-0.2-0.1-0.3c0-0.1-0.1-0.2-0.2-0.3
	C1.1,6.6,1.1,6.5,0.9,6.5c-0.1,0-0.2,0-0.3,0c-0.1,0-0.2,0.1-0.3,0.2C0.2,6.8,0.1,6.9,0.1,7C0,7.1,0,7.3,0,7.4c0,0.1,0,0.2,0,0.4
	c0,0.1,0,0.2,0.1,0.3c0,0,0,0,0,0l0,0c0,0,0.1,0.1,0.1,0.1c0,0,0.1,0.1,0.1,0.1c0.1,0.1,0.1,0.1,0.2,0.1c0.1,0,0.1,0.1,0.2,0.1
	c-0.1,0.1-0.2,0.1-0.3,0c-0.1,0-0.1,0-0.2,0c0,0,0,0,0,0c0,0.1,0.1,0.1,0.1,0.2C0.4,8.9,0.5,8.9,0.6,9C0.7,9,0.8,9,0.9,9
	C1.1,9,1.2,8.9,1.3,8.8z M0.4,7.2l0,0.2c0,0,0,0,0,0c0,0,0,0,0,0c0,0,0,0.1-0.1,0c0,0,0-0.1,0-0.1c0,0,0,0,0.1,0
	c0-0.1-0.1-0.1-0.1,0C0.2,7.3,0.2,7.3,0.4,7.2c-0.2,0-0.2-0.3,0-0.2C0.5,7,0.4,7.1,0.4,7.2C0.3,7.2,0.3,7.2,0.4,7.2
	C0.3,7.3,0.3,7.3,0.4,7.2z M1,6.7c0,0,0.1-0.1,0.2,0c0.1,0,0,0.1,0,0.1c0,0,0,0-0.1,0.1c0,0,0,0,0,0l0,0c0,0,0,0,0,0c0,0,0,0,0,0
	C1,6.8,1,6.8,1,6.7C1,6.8,1,6.7,1,6.7z M1,8.5c0.1,0,0.1,0.1,0.1,0.2c0,0,0,0,0,0.1c0,0-0.1,0-0.1-0.1l0,0C0.9,8.7,0.9,8.7,1,8.5
	C0.9,8.6,0.9,8.5,1,8.5z M2.5,6.8C2.5,6.8,2.5,6.8,2.5,6.8L2.5,6.8C2.5,6.8,2.5,6.8,2.5,6.8z M3,3c0,0.1,0.1,0.2,0.1,0.3
	c0,0.1,0.1,0.2,0.1,0.3c0.2,0.1,0.3,0.1,0.5,0.2c0,0,0.1,0.1,0.1,0.2c0,0.1-0.1,0.1-0.2,0.1c0,0,0,0-0.1,0c0,0,0.1,0.1,0.1,0.1
	C3.9,4.3,4,4.3,4.1,4.3c0.1,0,0.2,0,0.4,0c0.1,0,0.2-0.1,0.3-0.2C4.9,4,4.9,3.9,4.9,3.8c0-0.1,0-0.2,0-0.3c0,0,0,0,0,0
	C4.8,3.5,4.7,3.6,4.6,3.5c0-0.1,0.1-0.1,0.2-0.1c0.1,0,0.1-0.1,0.1-0.2c0,0,0-0.1,0-0.1c0,0,0-0.1,0-0.1c0-0.1,0-0.1,0-0.2l0,0
	c0,0,0,0,0,0c0-0.1,0-0.1,0-0.2c0-0.1,0-0.2-0.1-0.3c0,0,0,0,0-0.1c0,0,0,0,0,0c0,0,0,0,0,0c0,0,0,0,0,0c-0.1,0-0.2,0-0.3-0.1
	c0,0,0-0.1,0-0.2C4.6,2,4.7,2,4.8,2c0-0.1-0.1-0.2-0.1-0.2C4.6,1.6,4.5,1.5,4.4,1.5C4.3,1.4,4.2,1.4,4.1,1.4c-0.1,0-0.2,0-0.4,0.1
	c-0.1,0-0.2,0.1-0.3,0.2C3.3,1.7,3.2,1.8,3.1,1.9C3.1,2,3,2.1,3,2.2c0,0.1,0,0.2,0,0.4C3,2.7,3,2.8,3,3z M4.2,4C4.2,4,4.2,4,4.2,4
	c0.1-0.1,0.2-0.1,0.2,0c0,0.1,0,0.1-0.1,0.1C4.3,4.1,4.2,4.1,4.2,4C4.2,4,4.2,4,4.2,4z M3.3,2.3c0-0.1,0-0.1,0.1-0.2
	c0,0,0.1,0,0.1-0.1c0,0,0.1-0.1,0.1-0.1c0-0.1,0-0.1,0.1-0.2C3.7,1.7,3.9,1.8,4,2c0,0.1,0,0.1-0.1,0C3.8,2,3.8,1.9,3.8,1.9
	c-0.1,0,0,0.1,0,0.1c0,0.1-0.1,0.1-0.1,0.1C3.5,2.2,3.5,2.3,3.5,2.3c0,0.1-0.1,0.1-0.2,0.2l0.1,0c0,0,0,0-0.1,0c0,0,0,0,0,0l0,0
	c0,0,0,0,0,0C3.2,2.4,3.2,2.4,3.3,2.3z M1.4,5.4c0.1,0.1,0.1,0.2,0.2,0.3c0.1,0.1,0.2,0.1,0.2,0.2C1.9,6,2,6,2,6
	c0,0.1-0.1,0.1-0.1,0.1c-0.1,0-0.1,0-0.2,0c0,0,0,0,0,0.1C1.8,6.3,1.9,6.4,2,6.5c0.1,0.1,0.2,0.1,0.3,0.1c0.1,0,0.2-0.1,0.3-0.2
	c0.1-0.1,0.2-0.2,0.2-0.3C2.9,5.9,3,5.8,3,5.7c0,0,0,0,0,0C3,5.7,2.9,5.7,2.8,5.7c-0.1,0-0.3,0.1-0.4,0c0.1,0,0.2-0.1,0.3-0.2
	C2.8,5.5,2.9,5.5,3,5.4C3,5.3,3,5.3,3,5.3c0,0,0-0.1,0.1-0.1c0,0,0,0,0,0c0-0.1,0-0.2,0-0.3c0-0.1,0-0.2-0.1-0.4
	C3,4.4,3,4.3,2.9,4.2c0-0.1-0.1-0.2-0.2-0.3C2.7,3.8,2.6,3.7,2.5,3.6c-0.1,0-0.2,0-0.2,0c0,0,0,0,0,0c0,0,0.1-0.1,0.1-0.1
	c-0.1,0-0.2,0-0.2,0c0,0-0.1,0-0.1,0.1C2,3.6,1.9,3.7,1.8,3.7c0,0,0,0-0.1,0.1C1.7,3.9,1.6,4,1.6,4.1C1.5,4.2,1.4,4.3,1.4,4.4
	c0,0.1,0,0.2,0,0.4c0,0.1,0,0.2,0,0.4C1.4,5.3,1.4,5.3,1.4,5.4z M2.6,4C2.7,4,2.7,4,2.6,4c0.1,0.1,0.1,0.2,0.1,0.2c0,0,0,0,0,0
	c0,0,0,0,0,0c0,0,0,0,0,0.1c0,0.1,0.1,0.1,0.1,0.2c0,0.1,0,0.2-0.1,0.2c0-0.1,0-0.1,0-0.2c0-0.1-0.1-0.1-0.1-0.1c0-0.1,0-0.2,0-0.3
	c0-0.1,0-0.1,0-0.2L2.5,4C2.5,4,2.6,4,2.6,4z M2.5,6.1c0,0.2-0.2,0.2-0.2,0.1l0,0C2.1,6.1,2.5,5.9,2.5,6.1z M1.5,5.1
	C1.6,5.1,1.6,5.2,1.5,5.1c0.1,0.1,0.1,0.1,0.1,0.2c0,0,0,0.1,0,0.1C1.6,5.4,1.6,5.3,1.5,5.1l0,0.1C1.5,5.2,1.5,5.2,1.5,5.1z
	 M2.3,6.2L2.3,6.2C2.3,6.2,2.3,6.2,2.3,6.2C2.3,6.2,2.3,6.2,2.3,6.2z M6.2,4.1c0,0.1,0.1,0.1,0.1,0.2c0.1,0.1,0.2,0.2,0.3,0.4
	c0,0.1,0.1,0.3,0.2,0.3C7,5,7.1,4.9,7.1,4.8c0.1-0.1,0.1-0.2,0.2-0.3c0.1-0.1,0.2-0.2,0.2-0.3c0-0.1,0-0.3-0.2-0.2
	C7.3,3.9,7.2,4.1,7,4.1C6.8,4.2,6.5,4.1,6.2,4.1C6.3,4,6.2,4,6.2,4.1z M6.2,4C6.2,4,6.2,4,6.2,4c0,0,0.1,0,0.1,0.1c0,0,0,0,0,0
	L6.2,4z M5.5,1.4C5.5,1.4,5.5,1.4,5.5,1.4C5.5,1.4,5.5,1.4,5.5,1.4L5.5,1.4c0,0,0.1,0,0.1,0c0.1,0,0.2,0,0.2,0.1
	c0,0.1-0.1,0.1-0.1,0.2c0,0,0,0.1,0,0.1c0,0-0.1,0-0.1,0.1c0,0-0.1,0.1-0.1,0.1c0,0.1,0.1,0.2,0.1,0.3c0,0,0,0.1,0,0.1
	c0,0,0,0,0.1,0.1c0.1,0.1,0.1,0.2,0.2,0.3C5.9,2.7,6,2.8,6,2.8C6.1,2.9,6.1,2.9,6.2,3C6.1,3,6,3,5.8,3c0,0-0.1,0-0.1-0.1
	C5.8,3,5.9,3.1,5.9,3.2C6,3.3,6.1,3.4,6.2,3.5c0.1,0.1,0.2,0.2,0.3,0.2c0.1,0,0.2,0,0.4,0c0.1,0,0.2,0,0.3-0.1
	c0.1-0.1,0.2-0.2,0.2-0.3C7.5,3.2,7.5,3.1,7.6,3c0-0.1,0.1-0.1,0.1-0.2c0,0-0.1,0-0.1,0c-0.1,0-0.2,0-0.2,0.1c-0.1,0-0.1,0-0.2,0
	c0,0,0.1,0,0.1,0c0,0,0,0,0.1,0c0.1,0,0.1-0.1,0.2-0.1c0,0,0,0,0-0.1c0,0,0,0,0.1-0.1c0,0,0.1-0.1,0.1-0.1c0-0.1,0-0.1,0.1-0.2
	c0-0.1,0.1-0.1,0.1-0.2c0,0,0-0.1,0-0.1c0,0,0-0.1,0-0.1c0-0.1,0-0.2,0-0.4c0-0.1,0-0.2,0-0.4c0-0.1,0-0.2-0.1-0.4
	c0-0.1-0.1-0.2-0.2-0.3C7.5,0.4,7.4,0.3,7.3,0.2C7.2,0.2,7.1,0.1,7,0.1C6.9,0,6.7,0,6.6,0C6.5,0,6.4,0,6.3,0C6.1,0.1,6,0.1,5.9,0.2
	C5.8,0.3,5.8,0.3,5.7,0.4C5.6,0.5,5.6,0.6,5.5,0.8c0,0.1-0.1,0.2-0.1,0.3C5.4,1.2,5.4,1.3,5.5,1.4C5.4,1.4,5.4,1.4,5.5,1.4L5.5,1.4z
	 M6.6,3.3c0,0,0.1,0,0.2,0.1c0,0.1-0.2,0.1-0.2,0l0,0C6.5,3.4,6.5,3.3,6.6,3.3z M5.8,1c0-0.1,0-0.2,0-0.2c0-0.1,0-0.1,0-0.2
	c0,0,0,0,0-0.1c0-0.1,0-0.1,0.1-0.2c0.1,0,0.2,0,0.2,0c0,0,0,0.2,0,0.2c-0.1,0-0.2,0-0.2,0C5.9,0.8,6,0.9,6,1c0,0.1,0.1,0.2,0,0.2
	c0,0.1-0.1,0.1-0.2,0.1c-0.1,0-0.2-0.1-0.1-0.1C5.8,1.1,5.8,1.1,5.8,1z M11.4,25.5c0,0,0,0.1,0,0.1C11.4,25.6,11.4,25.5,11.4,25.5
	C11.4,25.5,11.4,25.5,11.4,25.5z M12.2,2.2c0,0-0.1,0.1-0.1,0.2c0,0.1-0.1,0.1-0.1,0c0-0.2,0-0.3,0-0.5c0,0,0,0,0,0l0,0.1
	c-0.1,0,0-0.1,0-0.1c0,0,0,0,0-0.1l0,0c0,0,0.1-0.1,0.1-0.1c0-0.1,0.1-0.2,0.1-0.2c0-0.1,0-0.2-0.1-0.2c0-0.2-0.1-0.3-0.2-0.4
	c-0.1-0.1-0.2-0.3-0.3-0.4c-0.1-0.1-0.2-0.2-0.4-0.3c-0.1-0.1-0.3-0.1-0.4-0.2c-0.1,0-0.3-0.1-0.5-0.1c-0.2,0-0.3,0-0.5,0
	c-0.2,0-0.3,0.1-0.4,0.1C9.4,0.3,9.3,0.3,9.2,0.4c0,0,0,0.1-0.1,0.1c0,0,0,0,0,0c0-0.1-0.2,0-0.2,0c0,0-0.1,0.1-0.1,0l0,0
	c0,0,0,0,0,0C8.7,0.7,8.5,0.9,8.4,1c0,0.1,0,0.1,0.1,0c0,0,0.1-0.1,0.2-0.1c0,0,0,0.1,0,0.2c0,0,0,0,0.1,0c0,0,0,0.1,0,0.1
	c0,0.1-0.1,0.3-0.1,0.5c0,0,0,0,0,0.1c0.1,0,0.2,0,0.2,0.1c0.1,0.1-0.1,0.4-0.2,0.4c0,0-0.1,0-0.1,0c0,0.1,0,0.3,0,0.4
	c0,0.1,0,0.3,0,0.4c0.1,0.1,0.2,0.2,0.3,0.3C8.9,3.4,9,3.5,9.1,3.7c0,0,0,0.1,0,0.1c-0.1,0-0.2,0-0.2-0.1C8.8,3.7,8.7,3.6,8.6,3.5
	c0,0.2,0.1,0.3,0.2,0.4C8.8,4.1,8.9,4.2,9,4.4c0.1,0.1,0.2,0.2,0.3,0.3c0.1,0.1,0.3,0.1,0.4,0.2C9.9,4.9,10.1,5,10.2,5
	c0.1,0,0.3,0,0.4,0c0,0,0,0,0-0.1c0-0.1,0-0.1-0.1-0.2c0,0-0.1-0.2-0.1-0.2l0-0.1c0,0,0,0,0,0c0-0.1,0.2-0.1,0.2-0.1
	c0.1,0.1,0.1,0.2,0.1,0.2c0,0.1,0,0.2,0.1,0.2c0,0,0.1,0.1,0.1,0.1c0.1,0,0.2-0.1,0.3-0.2c0.1-0.1,0.3-0.2,0.4-0.3c0,0,0,0,0,0
	c-0.3,0-0.6-0.2-0.9-0.3c0.1,0,0.2,0,0.2,0c0.1,0,0.1,0,0.2,0c0.1,0,0.3,0,0.4-0.1c0,0,0.1,0,0.1,0c0,0,0.1,0,0.1-0.1
	c0,0,0.1-0.1,0.1-0.1c0,0,0,0,0-0.1c0,0,0,0,0.1,0c0,0,0,0,0,0c0,0,0,0,0-0.1c0-0.1,0.1-0.2,0.1-0.2c-0.1,0-0.1,0-0.2,0
	c0,0-0.1,0.1-0.1,0.1l0,0c-0.1,0-0.1-0.1,0-0.1c0.1,0,0.1,0,0.2,0c0-0.1,0-0.1,0.1-0.2c0-0.1,0.1-0.2,0.2-0.2c0-0.1,0-0.2,0.1-0.3
	c0-0.1,0-0.3,0-0.4C12.3,2.3,12.2,2.3,12.2,2.2z M8.9,2.7c0,0.1,0,0.1,0,0.2c0,0,0,0,0,0l0,0c0,0,0,0,0,0c0,0,0,0,0,0l0,0
	c0,0,0,0,0,0c0,0,0,0,0-0.1c0-0.1,0-0.1-0.1-0.2c0,0,0-0.1,0-0.1c0,0,0.1-0.1,0.1,0C9,2.5,8.9,2.6,8.9,2.7z M9.8,4.4
	c0,0-0.1,0-0.1-0.1C9.7,4.4,9.7,4.4,9.8,4.4C9.7,4.4,9.7,4.3,9.7,4.3c0,0,0,0,0-0.1c0.1,0,0.1,0,0.1,0.1C9.9,4.4,9.8,4.4,9.8,4.4z
	 M10.1,4.2L10.1,4.2c-0.1,0,0-0.1,0-0.1c0,0,0.1,0,0.2,0.1C10.3,4.3,10.1,4.3,10.1,4.2z M10.8,0.6c0,0,0.1-0.1,0.1-0.1
	c0.1,0,0.1,0.1,0.1,0.2c0,0.1-0.1,0.1-0.1,0l0,0C10.8,0.7,10.8,0.6,10.8,0.6z M11.4,3.4c0,0.1-0.1,0.2-0.2,0.2c-0.1,0-0.2,0-0.3,0
	c0,0-0.1,0.1-0.1,0.1l0,0c-0.1,0-0.1-0.1,0-0.1c0.1,0,0.1,0,0.2,0c0-0.1,0-0.1,0.1-0.2c0.1-0.1,0.2-0.3,0.3-0.2
	C11.4,3.3,11.4,3.4,11.4,3.4z M11.7,1.5c0-0.1,0-0.1-0.1-0.2c0,0-0.1-0.2-0.1-0.2l0-0.1c0,0,0,0,0,0c0-0.1,0.2-0.1,0.2-0.1
	c0.1,0.1,0.1,0.2,0.1,0.2c0,0.1,0,0.2,0.1,0.2c0,0,0.1,0.1,0.1,0.1c0,0,0,0.1,0.1,0.1C11.9,1.7,11.8,1.7,11.7,1.5z M4.9,5.6
	c0,0,0.1,0.1,0.1,0.1c0.1,0,0.1-0.1,0.1-0.1c0-0.1-0.2-0.3-0.3-0.3C4.7,5.2,4.6,5.1,4.4,5c0,0,0,0,0,0l0,0c0,0.1,0,0.1,0.1,0.2
	c0.1,0.1,0.1,0.1,0.2,0.1C4.8,5.3,4.8,5.5,4.9,5.6z M2.4,6.9c0,0.1,0,0.2,0,0.2c0.1,0.1,0.3,0.1,0.4-0.1c0-0.1,0.1-0.1,0.1-0.2
	C2.9,6.8,3,6.8,3.1,6.7c0.1-0.1,0.1-0.2,0.1-0.2c0-0.1-0.1-0.1-0.2,0C2.9,6.5,2.8,6.6,2.7,6.6c-0.1,0-0.2,0.1-0.3,0.1l0.1,0
	C2.5,6.8,2.4,6.8,2.4,6.9z M10.1,5.4c0,0.1,0.1,0.1,0.1,0.1c0.1,0,0.2,0,0.3-0.1c0,0,0.1-0.1,0-0.1c0,0-0.1,0-0.2,0
	C10.4,5.3,10.2,5.2,10.1,5.4L10.1,5.4C10.1,5.3,10.1,5.4,10.1,5.4z M5,5.1L5,5.1C5,5.1,5,5.1,5,5.1C5,5.1,5,5.2,5,5.1
	c0,0.1,0,0.1,0,0.1C5.1,5.3,5.1,5.2,5,5.1c0.1,0,0.1,0,0.1,0c0,0,0,0,0-0.1c0,0,0,0-0.1,0C5,5,5,5.1,5,5.1z M9.4,5.3
	c0.1,0,0.2,0.1,0.2,0.1c0.1,0,0.1-0.1,0-0.1C9.6,5.1,9.4,5.1,9.3,5C9.1,4.9,9,4.7,8.9,4.6l0,0.1C8.8,4.8,9,4.9,9,5
	C9.1,5.1,9.2,5.2,9.4,5.3z M4.5,5.8l0-0.2C4.5,5.7,4.5,5.8,4.5,5.8z M7.5,5.2c0,0.1,0.1,0.1,0.2,0c0,0,0.1-0.1,0.1-0.1
	c0,0-0.1-0.1-0.1-0.1c0,0-0.1,0-0.1,0c0,0,0,0,0,0c0,0,0,0,0,0c0,0,0,0,0,0C7.5,5.1,7.5,5.2,7.5,5.2L7.5,5.2z M12.4,1.9
	c0,0-0.1,0.1-0.1,0.1c0,0,0,0,0,0.1l0,0c0,0.1,0,0.1,0.1,0.2c0.1,0.1,0.2,0,0.2-0.1C12.6,2,12.5,1.9,12.4,1.9z M4.5,5.6L4.5,5.6
	C4.5,5.6,4.5,5.6,4.5,5.6C4.5,5.6,4.5,5.6,4.5,5.6z M4,4.8c0-0.1-0.1-0.1-0.2-0.1c0,0,0,0,0,0.1l0,0c0,0,0,0,0,0.1
	c0,0.1,0,0.1,0.1,0.1c0,0,0.1,0,0.1,0c0,0,0,0,0,0l0,0c0,0,0,0,0,0C3.9,5,4,4.9,4,4.8z M4.7,5.6c0-0.1-0.1-0.1-0.2-0.1
	c0,0,0,0-0.1,0.1c0,0,0,0.1,0.1,0.1C4.6,5.8,4.7,5.7,4.7,5.6z M10,20C10,20,10,20,10,20C10,20,10,20,10,20L10,20z M11.5,8.2
	L11.5,8.2C11.5,8.1,11.5,8.1,11.5,8.2C11.5,8.1,11.5,8.1,11.5,8.2z M9.3,17.1C9.2,17.1,9.2,17.1,9.3,17.1
	C9.2,17.1,9.2,17.1,9.3,17.1L9.3,17.1z M9.3,17.1c0,0,0.1-0.1,0.1-0.1c0,0-0.1,0-0.2,0C9.2,17,9.2,17.1,9.3,17.1L9.3,17.1
	C9.3,17.1,9.3,17.1,9.3,17.1z M11.2,5.7c0-0.2-0.5,0-0.2,0.2l0,0c0,0,0,0,0,0C11.1,5.8,11.2,5.8,11.2,5.7z M9.2,17
	C9.2,17.1,9.2,17.1,9.2,17C9.2,17.1,9.2,17.1,9.2,17z M9.1,16.6C9.2,16.6,9.2,16.6,9.1,16.6c0.1,0,0.1-0.1,0.1-0.1
	c0-0.1-0.1,0-0.1,0C9.1,16.5,9.1,16.5,9.1,16.6L9.1,16.6C9.1,16.5,9.1,16.5,9.1,16.6C9.1,16.5,9.1,16.5,9.1,16.6z M10.6,12.6
	c0,0.1,0.1,0.1,0.2,0.1c0.1,0,0.1-0.1,0.1-0.2c0-0.1-0.1-0.1-0.2,0C10.6,12.4,10.6,12.5,10.6,12.6L10.6,12.6
	C10.6,12.6,10.6,12.6,10.6,12.6z M10.3,20.4c0,0,0.1,0.1,0.1,0.1c0.1,0,0-0.1,0-0.2c-0.1-0.1-0.1-0.2-0.1-0.3c0-0.1,0-0.1-0.1-0.2
	c0,0.1-0.1,0-0.1,0c0,0-0.1-0.1-0.1-0.1c0,0,0,0.1,0,0.1C10,19.9,10,20,10,20C10.2,19.9,10.2,20.3,10.3,20.4z M9.7,19.1
	c0.1,0,0.1,0,0.1-0.1c0-0.1-0.1-0.1-0.1-0.1c0,0-0.1,0-0.1,0c0,0,0,0.1,0,0.1C9.7,19,9.7,19.1,9.7,19.1z M4.6,25.7l0-0.1
	C4.6,25.5,4.6,25.6,4.6,25.7C4.6,25.6,4.5,25.6,4.6,25.7z M2.9,17.7C2.9,17.7,3,17.7,2.9,17.7C3,17.7,3,17.7,2.9,17.7
	c0-0.1,0-0.1,0-0.1c0,0,0-0.1,0-0.1c0-0.1,0-0.1-0.1-0.1c0,0-0.2,0-0.2,0l0.1,0c0,0.1,0,0.1,0,0.2c0,0.1,0,0.2,0,0.3
	c0,0.1,0.1,0.1,0.1,0.1c0,0.1,0,0.1,0,0.2C3,18.2,3,18,3,18C3,17.9,2.9,17.8,2.9,17.7z M3.7,20.5C3.7,20.5,3.6,20.5,3.7,20.5
	L3.7,20.5C3.6,20.5,3.6,20.5,3.7,20.5C3.6,20.6,3.6,20.6,3.7,20.5c-0.1,0.1-0.1,0.1-0.1,0.1c0,0,0,0.1,0,0.1c0,0,0,0,0,0
	c0.1,0.1,0.2,0,0.2-0.1C3.8,20.5,3.8,20.4,3.7,20.5z M11.9,8.9c0.2,0,0.3-0.2,0.2-0.4c0-0.1-0.1-0.1-0.1-0.1c0,0-0.1-0.1-0.1-0.1
	c0,0,0-0.1,0-0.1c0-0.1-0.1-0.1-0.2-0.1C11.6,8,11.6,8,11.5,8c0,0,0,0,0,0l0,0c0.1,0,0.1,0.1,0.1,0.2c0.1,0.1,0.1,0.1,0.2,0.2
	c0,0,0,0.1,0.1,0.2c0.1,0,0.1,0,0.1,0.1C11.9,8.7,11.9,8.7,11.9,8.9C11.8,8.8,11.7,8.9,11.9,8.9z M8.6,0.7l0.1-0.1
	C8.7,0.6,8.7,0.6,8.6,0.7C8.7,0.7,8.6,0.7,8.6,0.7z M0.9,9.8c0,0,0.1-0.1,0-0.1c0,0-0.1,0-0.2,0c0,0,0,0.1,0,0.1c0,0,0,0,0,0
	c0,0,0,0,0,0c0,0,0,0,0,0l0,0C0.8,9.9,0.8,9.9,0.9,9.8C0.9,9.9,0.9,9.9,0.9,9.8z M11.9,10.2c-0.1,0-0.2,0-0.2,0.1c0,0,0,0,0,0
	c0,0,0,0,0,0c0-0.2,0.1-0.4,0.1-0.6c0-0.8-0.6-1.5-1-2c-0.1,0-0.1,0-0.1-0.1c0,0-0.1,0-0.1,0c0-0.1,0-0.1-0.1-0.1
	c-0.1,0-0.1,0-0.1-0.1c0,0-0.1-0.1-0.1-0.1C10,7.3,10,7.3,9.9,7.3c-0.1,0-0.1,0-0.2,0c0,0,0,0-0.1,0c0,0-0.1,0-0.1,0
	c-0.1,0-0.1,0-0.2,0c-0.1,0-0.1,0-0.2,0C9.3,7,9.2,7,9,7c0,0-0.1,0-0.1,0c0,0-0.1,0-0.1-0.1c0,0,0,0,0,0l0,0c0,0,0,0,0,0
	c0,0,0,0,0,0c0.1,0,0.1,0,0.2,0c0.1,0,0.1,0,0.2,0c0.1,0,0.1,0,0.2,0c0.1,0,0.1,0.1,0.1,0c0,0,0.1,0,0.1,0.1c0.1,0,0.1,0,0.1,0
	c0,0,0,0,0.1,0c0,0,0,0,0.1,0c0.1,0,0.1,0,0.2,0c0,0,0,0,0,0.1c0.4,0.1,0.9,0.3,1.2,0.6c0,0,0,0,0,0c0-0.1-0.1-0.2-0.1-0.3
	c-0.1-0.1-0.1-0.2-0.2-0.3C11,6.9,11,6.8,10.9,6.8c-0.1-0.1-0.1-0.1-0.2-0.1c0-0.1-0.1-0.3-0.1-0.4c-0.1-0.1-0.1-0.3-0.3-0.4
	c-0.2-0.2-0.6-0.4-1-0.3C9.2,5.6,9.1,5.7,9,5.7c-0.1,0-0.1,0-0.2,0c0,0,0,0.1,0.1,0.1c0,0.1,0,0.2-0.1,0.2c0-0.1,0-0.1,0-0.2
	c0-0.1-0.1-0.1-0.1-0.1c0,0,0,0,0-0.1c-0.1,0-0.2,0-0.3,0c-0.1,0-0.2,0-0.3,0c0,0,0,0,0,0C7.9,5.7,7.8,5.6,7.7,5.6
	c-0.2,0-0.3,0-0.5-0.1C7.2,5.5,7,5.4,7,5.5c-0.1,0-0.2,0.2-0.3,0.3C6.7,5.8,6.6,5.9,6.5,6c0,0,0,0,0,0c0,0.1,0,0.2,0.1,0.2
	c0,0,0.1,0.1,0.1,0.1c0,0,0,0.1,0.1,0.1c-0.2,0-0.3-0.1-0.4-0.2c0-0.1,0-0.1-0.1-0.2c0,0,0,0,0,0c0,0-0.1,0.1-0.1,0.1
	c0,0,0,0.1,0,0.1c0,0-0.1,0-0.1,0.1C6.1,6.4,6,6.4,6,6.4c-0.1,0-0.1-0.1-0.2-0.1c0,0,0,0,0,0c-0.1,0-0.2,0.1-0.2,0.1
	c0,0-0.1,0-0.1,0.1c-0.1,0-0.3,0-0.4,0c-0.2,0-0.4,0.1-0.6,0.3c0,0.1-0.1,0.2-0.1,0.3C4.3,7,4.3,7.1,4.2,7.2c0,0-0.1,0-0.1,0.1
	c0,0,0,0.1,0,0.1c0,0.1,0,0.2-0.1,0.2c0-0.1,0-0.1,0-0.2c0,0,0-0.1-0.1-0.1c0,0,0,0-0.1,0c0,0-0.1,0.1-0.1,0.1c-0.1,0-0.2,0-0.2,0
	c-0.1,0-0.3,0-0.4,0C2.9,7.5,2.8,7.8,2.7,8c0,0.1,0,0.3,0,0.4c0,0,0,0,0,0.1c0,0-0.1,0.1-0.1,0.1C2.5,8.7,2.5,8.8,2.5,8.9
	C2.4,9,2.3,9.1,2.3,9.2C2.2,9.3,2.2,9.4,2.1,9.5C2.1,9.5,2,9.6,2,9.6c-0.1,0-0.2,0.1-0.3,0.2c-0.1,0.2-0.2,0.3-0.2,0.5
	c0,0.2,0,0.3,0.1,0.4c0,0,0,0,0,0c0,0,0,0.1,0,0.1c0,0.1,0,0.2,0.1,0.2c0,0,0.1,0.1,0.1,0.1c0,0,0,0.1,0.1,0.1
	c-0.2,0-0.3-0.1-0.4-0.2c0-0.1,0-0.1-0.1-0.1c0,0.1,0,0.1,0,0.2c0,0,0,0.1,0,0.1c0,0,0,0.1,0.1,0.1c0,0.1,0,0.1,0,0.2
	c0,0,0-0.1-0.1-0.1c0,0.1-0.1,0.2-0.1,0.3c0,0.1,0,0.1,0,0.2c-0.1,0-0.1-0.1-0.2,0c0,0-0.1,0.1-0.1,0.1c0,0-0.1,0-0.1,0.1l0,0
	c0-0.1,0.2,0,0.3,0c0.1,0.1,0,0.2,0.1,0.2c0,0,0,0,0,0.1c0,0.1,0,0.2,0,0.3c0,0.1,0,0.2,0,0.3c0,0,0,0,0,0c0,0,0.1,0,0.1,0
	c0.1,0,0.2,0,0.2,0.1c0,0.1-0.1,0.1-0.1,0.2c0,0,0,0.1,0,0.1c0,0-0.1,0-0.1,0.1c0,0,0,0,0,0c0,0.1,0,0.1,0,0.2c0,0.1,0,0.2,0,0.3
	c0,0.1,0.1,0.2,0.1,0.3c0,0.1,0.1,0.2,0.1,0.3c0,0.1,0.1,0.2,0.2,0.3c0,0.1,0.1,0.2,0.1,0.3c0,0,0,0.1,0,0.2c0,0-0.1,0-0.1,0
	c-0.1,0-0.1,0,0,0.1l0,0c0.1,0,0.1,0,0.1-0.1c0,0.1,0,0.1,0,0.1c0,0.1,0.1,0.2,0.2,0.3c0,0.1,0.1,0.2,0.2,0.3s0,0.2,0.1,0.3
	c0,0.1,0.1,0.2,0.1,0.3c0,0.1,0.1,0.2,0.1,0.3c0,0.1,0.1,0.1,0.1,0.1c0,0,0.1,0.1,0.1,0.1c0.3,0.2,0.7,0.4,1,0.7
	c0.3,0.3,0.4,0.6,0.6,0.9c0.2,0.4,0.4,0.7,0.7,0.9c0.1,0.1,0.2,0.2,0.3,0.3c0,0.1,0.1,0.1,0,0.1c-0.1,0-0.3-0.1-0.4-0.2
	c-0.2-0.1-0.3-0.2-0.5-0.4c-0.3-0.3-0.4-0.6-0.6-1c-0.2-0.3-0.5-0.4-0.8-0.5c0,0,0,0,0,0c0,0.1,0.1,0.2,0.2,0.3c0,0.1,0,0.2,0.1,0.3
	c0,0.1,0.1,0.2,0.1,0.3c0,0.1,0.2,0.2,0.2,0.3c0,0.1,0,0.2,0,0.3c0,0.1,0.1,0.2,0.1,0.3c0,0.1,0.1,0.2,0.1,0.3c0,0.1,0,0.2,0,0.3
	c0,0,0,0,0-0.1C3.9,20.2,4,20,4,20.1c0,0,0,0.1,0.1,0.1c0,0,0.1,0.1,0.1,0.1c0.1,0.1,0,0.3,0,0.4c0,0.1,0,0.1-0.1,0.1
	c0,0-0.1-0.1-0.1-0.1c0,0.1,0,0.2,0,0.2c0,0.1,0,0.2,0,0.3c0,0.1,0.1,0.2,0.1,0.3c0,0.1-0.1,0.2,0,0.3c0,0.1,0.1,0.2,0.1,0.3
	c0,0.1,0,0.2,0,0.3c0,0,0,0,0,0c0,0,0,0.1-0.1,0.1l0.1,0.1c0,0,0,0,0,0c0,0-0.1,0-0.1,0c0,0,0,0-0.1,0c0,0,0,0.1,0,0.1c0,0,0,0,0,0
	c0,0,0,0.1,0,0.1c0,0,0,0,0,0c0.1,0,0.1,0,0.1,0.1c0,0,0,0,0,0c0,0,0,0,0,0c0,0,0,0,0,0c0,0,0,0.1,0,0.1c0,0.1,0,0.2,0,0.3
	c0,0.1,0.1,0.2,0.1,0.3c0,0,0,0.1,0,0.1c0,0,0,0,0,0c0.1,0.1,0.1,0.2,0.1,0.2c0,0.1,0,0.2,0.1,0.2c0,0,0.1,0.1,0.1,0.1
	c0,0,0,0.1,0.1,0.1c-0.2,0-0.3-0.1-0.4-0.2c0-0.1,0-0.1-0.1-0.2c0,0,0,0,0-0.1c0,0.1,0.1,0.2,0.1,0.2c0,0.1,0,0.2,0,0.3
	c0,0.1,0.1,0.2,0.1,0.3c0,0.1,0,0.2,0.1,0.3c0,0,0,0.1,0,0.1c0,0-0.1,0.1-0.1,0.1l0,0c0,0,0,0,0,0c0,0.2-0.1,0.3-0.1,0.5
	c0,0.1,0,0.1,0.1,0c0,0,0.1-0.1,0.1-0.1c0,0,0,0.1,0,0.2c0,0,0.1,0,0.1,0c0,0.1,0,0.2,0,0.2c0,0.1,0.1,0.2,0.2,0.3
	c0,0.1,0.1,0.2,0.1,0.3c0,0,0,0,0,0.1c0-0.1,0-0.3,0-0.4c0,0,0,0,0,0l0,0c0,0,0,0,0,0l0.1-0.1c0.2-0.1,0.2,0.2,0.2,0.3
	c0,0.1,0,0.2,0,0.2c0,0,0,0-0.1,0.1c0,0,0,0,0,0c0.1,0.1,0.1,0.2,0.1,0.3c0.1,0.1,0.2,0.1,0.3,0.2c0.1,0.1,0.1,0.2,0.2,0.2
	C6,27.9,6,28,6.1,28.1c0.1,0.1,0.2,0.1,0.3,0.2c0.1,0.1,0.2,0.1,0.3,0.2c0.1,0,0.2,0.1,0.3,0.1c0.1,0,0.2,0,0.3,0
	c0.1,0,0.2,0.1,0.3,0.1c0,0,0.1,0,0.1,0c0-0.1,0.1-0.3,0.2-0.3l0,0c0,0,0,0,0,0c0,0,0,0,0,0l0,0c0,0,0.1,0,0.2,0
	c0.1,0,0.2,0,0.2,0.1c0,0.1-0.1,0.1-0.1,0.2c0,0,0,0,0.1,0c0.1,0,0.2,0,0.3,0c0.1,0,0.2-0.1,0.3-0.1c0.1,0,0.2,0,0.3-0.1
	c0.1,0,0.2-0.1,0.3-0.2c0.1,0,0.2-0.1,0.3-0.1c0.1-0.1,0.2-0.1,0.2-0.2c0.1-0.1,0.2-0.1,0.3-0.2c0.1-0.1,0.2-0.1,0.2-0.2
	c0,0,0.1-0.1,0.1-0.1c0,0-0.1-0.1-0.1-0.1c0,0,0,0.1,0,0.1l0-0.2c0,0,0-0.1-0.1-0.1c0,0,0,0,0,0l0,0.1c0,0,0,0,0,0.1
	c0-0.1,0-0.2,0.1-0.2c0-0.1,0.2-0.1,0.3-0.1c0.1-0.1,0.1-0.1,0.2-0.2c0.1-0.1,0-0.2,0.1-0.3c0-0.1,0.1-0.2,0.2-0.3
	c0-0.1,0.1-0.2,0.1-0.3c0,0,0-0.1,0-0.1c0,0,0,0,0,0c0-0.1-0.1-0.1-0.1-0.1c0-0.1,0-0.2,0-0.3c0-0.1,0-0.1,0-0.2l-0.1,0
	c0-0.1,0.1-0.1,0.2,0c0,0,0.1,0,0.1,0.1c0-0.1,0-0.2,0-0.3c0-0.1,0-0.2,0-0.3c0-0.1,0-0.1,0-0.2c0.1,0,0.1-0.1,0.1-0.1
	c0-0.1,0-0.1,0-0.2c0-0.1,0-0.4-0.2-0.3c0,0,0,0,0,0c0-0.1-0.1-0.2-0.1-0.3c0-0.1,0-0.2-0.1-0.3c0-0.1-0.1-0.2-0.1-0.3
	c0-0.1,0-0.1,0-0.2c0,0,0,0.1,0,0.1c0,0.1-0.1,0.1-0.1,0c0-0.2,0-0.3,0-0.5c0,0,0,0,0,0c0,0,0,0,0,0l0,0.1c-0.1,0,0-0.1,0-0.1
	c0,0,0,0,0-0.1l0,0c0,0,0,0,0,0c0,0,0,0,0,0c0,0,0,0,0-0.1c0,0,0,0,0,0c0,0,0,0,0,0c0,0,0,0,0,0c0,0,0,0,0,0l0,0
	c0.1,0,0.2-0.1,0.1-0.2c0-0.1-0.2-0.1-0.3-0.1c0-0.1,0-0.1-0.1-0.2c0,0,0,0,0-0.1c0,0,0,0,0,0c-0.1,0-0.2-0.1-0.3-0.2
	c0,0,0,0.1,0,0.1l0-0.2c0,0,0-0.1-0.1-0.1c0,0,0,0,0,0l0,0.1c0,0,0,0,0,0.1c0-0.1,0-0.2,0.1-0.2c0,0,0,0,0,0c0,0,0-0.1,0-0.1
	c0-0.1-0.1-0.2-0.2-0.2c0-0.1-0.1-0.2-0.1-0.2c0,0,0,0,0,0c-0.2-0.1-0.4-0.2-0.6-0.3c-0.1,0-0.2,0-0.3-0.1c-0.1,0-0.2,0-0.3,0
	c-0.1,0-0.1,0-0.2-0.1c-0.1,0-0.1,0-0.2,0c-0.1,0-0.1,0-0.2,0c-0.1,0-0.1,0-0.2,0C8.5,20,8.8,20,9.1,20c0.2,0,0.5,0,0.7,0
	c-0.1,0-0.1-0.1-0.1-0.1c0-0.1,0-0.2-0.1-0.3c0,0,0-0.1,0-0.1c0,0-0.1,0-0.1,0c-0.1,0-0.1-0.1-0.2,0c-0.1,0-0.2,0-0.3,0
	c0.1-0.1,0.2-0.2,0.4-0.2c0,0,0,0,0.1,0c0-0.1,0-0.1,0-0.1c0-0.1,0-0.1,0-0.2c0,0,0,0,0,0c0,0,0-0.1,0-0.1c0,0.1,0.1,0.1,0.1,0.2
	c0-0.1,0-0.1,0-0.2c0-0.1-0.1-0.1-0.1-0.2c0-0.1-0.1-0.1-0.1-0.2c0,0,0-0.1-0.1-0.1c0,0,0,0,0,0c-0.1-0.1-0.2-0.5-0.4-0.3
	c0,0,0,0,0,0l0,0c0,0,0,0,0,0c0,0-0.1-0.1-0.1-0.1c0,0-0.1-0.1,0-0.1c0,0,0.1,0,0.1,0c0,0,0.1,0.1,0.1,0c0,0,0.1,0.1,0.1,0.1
	c0,0,0,0,0,0c0-0.1,0-0.2,0-0.3c0-0.1,0-0.2,0-0.3c0-0.1,0-0.2,0-0.3c0-0.1-0.1-0.2,0-0.3c0,0,0-0.1,0-0.1c0,0,0,0,0,0
	c-0.2,0-0.5,0-0.7,0c0-0.1,0.2-0.1,0.3-0.1c0.1,0,0.1-0.1,0.2-0.1c0.1,0,0.2-0.1,0.3-0.2c0,0,0-0.1,0-0.1c0-0.1,0-0.1,0.1-0.2
	c0.1,0,0.2,0,0.3-0.1c0,0,0,0,0,0c0,0,0,0.1,0.1,0.1c0,0,0.1-0.1,0.1-0.1c0-0.1,0-0.1,0-0.2c0-0.1,0.1-0.2,0.1-0.2
	c0.1,0,0.1-0.1,0.1-0.2c0-0.1-0.1-0.2-0.2-0.2c0,0,0,0,0,0l0,0.1c0,0,0,0.2-0.1,0.2c0,0.1-0.1,0.1-0.1,0.2c0,0,0,0.1,0,0.1
	c0,0-0.1,0-0.1,0.1c-0.1,0-0.1,0.1-0.2,0.1c0,0,0,0,0,0c0-0.1,0-0.2,0.1-0.3c0,0,0-0.1,0-0.1c0,0-0.1,0.1-0.1,0.1
	c-0.1,0.1-0.3,0.2-0.4,0.3c-0.2,0.1-0.3,0.1-0.5,0.2C8,15.8,7.8,15.9,7.7,16c-0.2,0.1-0.3,0-0.5-0.1c0.1,0,0.2,0,0.3,0
	c0.1,0,0.2-0.1,0.2-0.1c0.2-0.1,0.3-0.2,0.5-0.3c0.1-0.1,0.3-0.2,0.5-0.3c0.1-0.1,0.3-0.2,0.4-0.3c0.1-0.2,0.3-0.4,0.4-0.6l0,0
	c0,0,0,0,0,0l0,0c0,0,0,0,0,0c-0.1,0-0.1,0.3,0,0.2c0,0,0.1-0.1,0.1-0.2c0,0,0-0.1-0.1-0.1c0.2,0,0.3-0.2,0.3-0.4c0,0,0,0,0,0
	c0-0.1,0-0.1,0-0.2c0-0.1,0.1-0.1,0.2-0.2c0,0,0,0,0,0c-0.1,0-0.2,0-0.3,0c0,0-0.1,0.1-0.1,0.1l0,0c-0.1,0-0.1-0.1,0-0.1
	c0.1,0,0.1,0,0.2,0c0-0.1,0-0.1,0.1-0.2c0.1-0.1,0.2-0.3,0.3-0.2c0,0,0,0,0,0c0,0,0,0,0,0c0.1-0.1,0.2-0.1,0.2-0.2
	c0.1-0.1,0.1-0.2,0.1-0.3c0,0,0,0,0,0c0-0.1-0.1-0.1-0.2-0.2c-0.1-0.1-0.1-0.2-0.1-0.2l0,0.1c0,0,0-0.1,0-0.1c0,0,0,0,0,0l0,0
	c0,0,0,0,0,0c0.1,0,0.1,0,0.2,0.1c0,0.1,0.1,0.1,0.2,0.1c0,0,0,0.1,0,0.1c0,0,0,0,0,0c0,0,0-0.1,0.1-0.1c0.1-0.1,0.1-0.2,0.2-0.3
	c0-0.1,0.2-0.2,0.2-0.2c0-0.1,0-0.2,0.1-0.3c0-0.1,0.1-0.2,0.2-0.3c0-0.1,0.1-0.2,0.1-0.2c0,0,0,0,0,0c0.1,0,0.2,0,0.2,0
	c0-0.1,0.1-0.2,0.1-0.2c0-0.1,0-0.2,0-0.3c0.1-0.1,0.1,0,0.2,0c0.1,0,0.1-0.1,0.1-0.2C12.1,10.2,12,10.2,11.9,10.2z M10.2,5.9
	c0,0,0.1,0,0.2,0.1c0,0.1-0.2,0.1-0.2,0l0,0C10.1,6,10.1,5.9,10.2,5.9z M2.8,16.2c-0.1,0-0.1,0-0.1-0.1c0-0.1,0-0.6-0.2-0.4
	c0,0,0,0,0,0l0,0c0,0,0,0,0,0c0-0.1-0.1-0.1-0.1-0.2c0,0,0-0.1,0-0.1c0.1,0,0.1,0.1,0.1,0.1c0,0,0.1,0.1,0.1,0c0,0.1,0,0.1,0.1,0.2
	c0,0.1,0.1,0.2,0.1,0.3C2.8,16,2.9,16.1,2.8,16.2z M11,25.3c0,0.1-0.1,0.2-0.2,0.1c-0.1,0-0.1-0.2-0.1-0.3c0,0,0-0.1,0-0.1
	c0-0.1,0-0.2,0.1-0.2c0,0,0,0.1,0,0.1c0,0,0.1,0,0.1,0.1c0,0,0,0.1,0.1,0.1C11,25.2,11,25.2,11,25.3z M10.7,23.5
	C10.7,23.5,10.7,23.4,10.7,23.5c0.1,0,0.1,0,0.2,0.1c0.1,0.1,0.1-0.1,0.1,0c0,0,0.1,0.2,0.1,0.2c0,0.1,0,0.2,0,0.3c0,0,0,0.1,0,0.1
	c0,0-0.1-0.1-0.1-0.1c0-0.1,0-0.1,0-0.2c0,0,0,0,0,0c0,0,0,0.1,0,0.1c0,0,0,0-0.1,0c0,0,0,0,0,0c0,0,0,0,0,0c0,0,0,0,0,0l0-0.1
	c0,0,0-0.1,0-0.1C10.7,23.6,10.7,23.5,10.7,23.5z M10.5,26.3c0.1,0,0.1,0,0.2,0.1c0.1-0.1,0-0.1,0-0.1c0-0.1,0-0.1,0.1-0.2
	c0-0.1,0-0.2,0-0.2c0-0.1,0.1-0.2,0.1-0.2l-0.1,0.1c0,0,0-0.1,0.1-0.1c0,0,0,0,0,0l0,0c0,0,0,0,0,0c0.1,0.1,0.1,0.1,0.1,0.2
	c0,0.1,0,0.1,0,0.2c0,0,0,0,0,0.1c0,0,0,0.1,0,0.1c0,0.1,0,0.1,0,0.2C10.8,26.5,10.5,26.5,10.5,26.3C10.3,26.3,10.4,26.3,10.5,26.3z
	 M9,18.8c0,0.1,0,0.1-0.1,0.1c0,0-0.1,0-0.1-0.1c0,0,0,0,0,0c0,0,0,0,0,0c0,0,0-0.1,0-0.1C8.9,18.7,9,18.8,9,18.8z M8.9,18.3
	c0,0.1-0.1,0.2-0.2,0.1c0,0,0,0,0,0l0,0C8.5,18.3,8.9,18.1,8.9,18.3z M8.4,19.3C8.4,19.3,8.4,19.4,8.4,19.3l0.1,0.2
	C8.4,19.4,8.3,19.3,8.4,19.3c0.2-0.1,0.2,0.1,0.2,0.1c0,0.1,0,0.2-0.1,0.1C8.4,19.5,8.4,19.4,8.4,19.3z M8.2,16.9
	C8.3,16.9,8.3,16.9,8.2,16.9c0.1,0.1,0.1,0.1,0.1,0.2c0,0,0,0.1,0,0.1C8.3,17.2,8.3,17.1,8.2,16.9l0,0.1C8.2,17,8.2,16.9,8.2,16.9z
	 M8.1,27.7C8.1,27.7,8.1,27.7,8.1,27.7C8,27.8,8,27.8,8,27.8l0,0c0,0,0,0,0,0c0,0,0,0,0,0c0,0,0,0,0,0c0,0,0-0.1,0-0.1
	c0,0,0.1-0.1,0.2,0C8.2,27.6,8.2,27.7,8.1,27.7z M8.1,18.4C8.1,18.4,8.1,18.4,8.1,18.4C8.1,18.4,8.1,18.4,8.1,18.4L8.1,18.4
	C8.1,18.4,8.2,18.4,8.1,18.4C8.2,18.5,8.1,18.5,8.1,18.4C8.1,18.5,8.1,18.5,8.1,18.4l0,0.1C8,18.5,8,18.4,8.1,18.4z M7.9,20.2
	L7.9,20.2C7.9,20.2,7.9,20.2,7.9,20.2c0.1,0,0.1-0.1,0.1,0c0,0,0,0.1-0.1,0.1C8,20.3,8,20.3,7.9,20.2C7.9,20.3,7.9,20.3,7.9,20.2
	C7.9,20.2,7.9,20.2,7.9,20.2z M6.8,15.9L7,16C6.9,16,6.8,15.9,6.8,15.9c0.1-0.1,0.1,0,0.1,0C7,16,7,16.1,6.8,15.9
	C6.9,16,6.8,16,6.8,15.9z M5.8,20.2C5.7,20.2,5.7,20.1,5.8,20.2C5.7,20.1,5.7,20.1,5.8,20.2L5.8,20.2c0-0.1,0-0.1,0-0.1
	c0,0,0.1,0,0.1,0C5.9,20.1,5.9,20.2,5.8,20.2C5.8,20.2,5.8,20.2,5.8,20.2z M7.6,27.7c-0.2,0-0.3,0-0.5,0c-0.2,0-0.3-0.1-0.5-0.1
	c-0.3-0.2-0.5-0.4-0.8-0.6l0,0c0,0,0-0.1,0-0.1c0,0,0.1,0,0.1,0.1C6,26.9,6,27,6.1,27c0.1,0.1,0.2,0.1,0.2,0.1
	c0.1,0,0.1,0.1,0.2,0.1c0.1,0.1,0.1,0.1,0.2,0.1c0-0.1,0-0.3,0.1-0.1c0.1,0.1,0.1,0.2,0.3,0.3c0.2,0.1,0.3,0,0.5,0
	C7.7,27.6,7.8,27.7,7.6,27.7z M7.3,16.8C7.4,16.8,7.4,16.8,7.3,16.8c0.1,0.1,0.1,0.2,0.1,0.2c0,0,0.1,0,0.1,0.1
	c0.1,0.2-0.1,0.3-0.2,0.4c-0.1,0-0.1-0.1,0-0.1c0.1,0,0.1-0.1,0.2-0.1c0-0.1-0.1,0-0.1-0.1c-0.1,0-0.1-0.1-0.1-0.2
	c0-0.1-0.1-0.1-0.2-0.2c-0.1-0.1-0.1-0.2-0.1-0.2l0,0.1c0,0,0-0.1,0-0.1c0,0,0,0,0,0l0,0c0,0,0,0,0,0c0.1,0,0.1,0,0.2,0.1
	C7.2,16.7,7.3,16.7,7.3,16.8z M8.4,6.9C8.4,6.9,8.4,6.9,8.4,6.9L8.4,6.9C8.3,6.9,8.4,6.8,8.4,6.9c0-0.1,0-0.1,0-0.1c0,0,0,0,0,0
	L8.4,6.9C8.5,6.8,8.5,6.8,8.4,6.9C8.5,6.9,8.5,6.9,8.4,6.9z M9.4,13.8c0,0,0-0.1,0-0.2c0,0,0,0,0,0c0,0,0,0,0,0l0,0.1
	c-0.1,0,0-0.1,0-0.1l0,0c0,0,0,0,0-0.1c0,0,0,0.1,0,0.1c0,0,0,0,0,0C9.4,13.7,9.4,13.8,9.4,13.8z M10.8,11c0,0-0.1-0.1-0.1-0.1
	c-0.1,0-0.1-0.2-0.1-0.2c0,0,0.1,0,0.1,0c0.1,0,0.1,0,0.2,0.1C11,10.8,10.9,11.1,10.8,11z M11.1,10.6c-0.1,0-0.1,0-0.2-0.1
	L11.1,10.6C11,10.6,11,10.5,11,10.5c0,0,0-0.1,0.1-0.1c0-0.1,0.2-0.1,0.2,0C11.2,10.5,11.2,10.6,11.1,10.6z M11.4,9.7
	c-0.1,0-0.1,0-0.1-0.1c0-0.1,0-0.6-0.2-0.4c0,0,0,0,0,0l0,0c0,0,0,0,0,0C11,9.2,11,9.2,11,9.1c0,0,0-0.1,0-0.1C11,9,11.1,9,11.1,9.1
	c0,0,0.1,0.1,0.1,0c0,0.1,0,0.1,0.1,0.2c0,0.1,0.1,0.2,0.1,0.3C11.4,9.6,11.5,9.7,11.4,9.7z M4,22.8C4,22.8,4,22.8,4,22.8
	C4,22.8,4,22.8,4,22.8z M8,28.7c-0.1,0-0.1,0.1,0,0.1l0,0c0,0.1,0.2,0.1,0.2,0C8.2,28.7,8.1,28.7,8,28.7z M11,27.3
	c-0.1,0-0.1,0-0.1,0.1C10.9,27.4,10.9,27.4,11,27.3l-0.2,0.1c0,0.2,0.3,0.2,0.3,0C11.1,27.3,11.1,27.3,11,27.3z"/>
<path class="st0" d="M20.1,13.6c0,0.1,0,0.2,0,0.2c0.1,0.1,0.2,0.3,0.3,0.2c0.1-0.1,0.2-0.2,0.3-0.3c0,0,0,0,0,0l0,0c0,0,0,0,0,0
	c-0.1,0-0.2,0-0.3,0c-0.1,0-0.2,0-0.2-0.1C20.3,13.5,20.2,13.5,20.1,13.6z M24.2,18.3c0,0-0.1-0.1-0.1-0.1L24.2,18.3
	c-0.2-0.1-0.3-0.2-0.4-0.3c-0.1,0-0.1-0.2-0.2-0.2c-0.1,0-0.1,0.1-0.1,0.2c0,0.1,0.1,0.2,0.1,0.2c0.1,0.1,0.3,0.2,0.5,0.1
	C24.2,18.4,24.2,18.3,24.2,18.3z M24.3,18c0.1,0,0.2,0,0.3,0c0.1,0,0.2-0.1,0.3-0.2c0-0.1,0.1-0.1,0.1-0.2c0,0,0,0,0,0
	c-0.1,0-0.1,0-0.2,0c-0.1,0-0.3,0-0.3,0c0.1,0,0.1,0,0.2-0.1c0.1,0,0.1-0.1,0.2-0.1c0,0,0.1-0.1,0.1-0.1c0,0,0.1-0.1,0.1-0.1l0,0
	c0,0,0,0,0,0c0-0.1,0-0.2,0.1-0.3c0-0.1,0-0.3,0-0.4c0-0.1,0-0.3-0.1-0.4c0-0.1-0.1-0.2-0.2-0.3c-0.1-0.1-0.2-0.2-0.3-0.2
	c-0.1,0-0.2,0-0.3,0c-0.1,0-0.2,0.1-0.3,0.2c-0.1,0.1-0.1,0.2-0.2,0.3c0,0.1-0.1,0.2-0.1,0.3c0,0.1,0,0.2,0,0.4c0,0,0,0,0,0
	c0,0,0,0.1,0.1,0.1c0.1,0.1,0.2,0.2,0.3,0.4c0,0,0,0.1,0,0.1c-0.1,0-0.2-0.1-0.2-0.1c0,0-0.1-0.1-0.1-0.1c0,0,0,0,0,0
	c0,0.1,0,0.3,0.1,0.4c0,0.1,0.1,0.2,0.2,0.3C24,18,24.1,18,24.3,18z M24.9,16.3C24.9,16.2,24.9,16.2,24.9,16.3
	c-0.1-0.1-0.2-0.2-0.1-0.3C25,16,25,16.3,24.9,16.3c0,0,0,0.1,0,0.1c0,0-0.1,0-0.1,0c0,0,0,0,0.1,0c0,0,0,0.1,0,0.1c0,0-0.1,0-0.1,0
	c0,0,0,0,0,0c0,0,0,0,0,0L24.9,16.3C24.9,16.3,24.9,16.3,24.9,16.3z M24.2,15.8C24.2,15.8,24.2,15.8,24.2,15.8
	C24.2,15.8,24.2,15.9,24.2,15.8C24.1,15.9,24.1,15.9,24.2,15.8L24.2,15.8C24.1,15.9,24.1,15.9,24.2,15.8c-0.1,0-0.1,0-0.2,0
	c0,0-0.1-0.1,0-0.1C24.1,15.7,24.2,15.7,24.2,15.8C24.2,15.8,24.2,15.8,24.2,15.8z M24.3,17.6c0,0.1,0,0.1,0,0.1l0,0
	c0,0,0,0.1-0.1,0.1c0,0,0,0,0-0.1C24.1,17.7,24.1,17.5,24.3,17.6C24.2,17.5,24.3,17.6,24.3,17.6z M22.7,15.8L22.7,15.8
	C22.7,15.8,22.7,15.8,22.7,15.8C22.7,15.8,22.7,15.8,22.7,15.8z M22.2,11.6c0-0.1,0-0.3,0-0.4c0-0.1-0.1-0.2-0.2-0.3
	c-0.1-0.1-0.2-0.2-0.3-0.3c-0.1-0.1-0.2-0.2-0.3-0.2c-0.1-0.1-0.3-0.1-0.4-0.1c-0.1,0-0.2,0.1-0.3,0.1c-0.1,0.1-0.2,0.1-0.2,0.2
	c-0.1,0.1-0.1,0.2-0.1,0.2c0.1,0,0.1,0,0.2,0.1c0,0,0,0.1,0,0.2c0,0.1-0.2,0.1-0.3,0.1c0,0,0,0,0,0c0,0,0,0,0,0c0,0,0,0,0,0
	c0,0,0,0,0,0.1c0,0.1,0,0.2-0.1,0.3c0,0.1,0,0.1,0,0.2c0,0,0,0,0,0l0,0c0,0.1,0,0.1,0,0.2c0,0,0,0.1,0,0.1c0,0,0,0.1,0,0.1
	c0,0.1,0.1,0.1,0.1,0.2c0.1,0,0.2,0,0.2,0.1c-0.1,0-0.2,0-0.3-0.1c0,0,0,0,0,0c0,0.1,0,0.2,0,0.3c0,0.1,0.1,0.2,0.2,0.3
	c0.1,0.1,0.2,0.2,0.3,0.2c0.1,0,0.2,0.1,0.4,0c0.1,0,0.2-0.1,0.3-0.1c0,0,0.1-0.1,0.1-0.1c0,0,0,0-0.1,0c-0.1,0-0.1,0-0.2-0.1
	c0-0.1,0.1-0.1,0.1-0.2c0.1-0.1,0.3-0.2,0.5-0.2c0-0.1,0.1-0.2,0.1-0.3c0-0.1,0.1-0.2,0.1-0.3C22.2,11.9,22.2,11.7,22.2,11.6z
	 M21,13.1c0,0.1-0.1,0.1-0.1,0.1c-0.1,0-0.1-0.1-0.1-0.1C20.8,12.9,20.9,12.9,21,13.1C20.9,13,21,13,21,13.1
	C21,13.1,21,13.1,21,13.1z M21.9,11.5C21.9,11.5,21.9,11.5,21.9,11.5L21.9,11.5C21.9,11.5,21.9,11.5,21.9,11.5
	c-0.1,0-0.1-0.1-0.1-0.1L21.9,11.5c-0.1-0.1-0.2-0.1-0.2-0.2c0-0.1-0.1-0.1-0.1-0.2c0,0-0.1-0.1-0.1-0.1c0-0.1,0.1-0.1,0-0.1
	c0,0.1-0.1,0.1-0.1,0.2c-0.1,0.1-0.1,0.1-0.1,0c0.1-0.2,0.2-0.2,0.4-0.1c0.1,0,0,0.1,0.1,0.2c0,0,0,0.1,0.1,0.1c0,0,0.1,0,0.1,0.1
	c0.1,0,0,0.1,0.1,0.2C22,11.4,22,11.4,21.9,11.5z M23.8,14.2c0-0.1,0-0.3,0-0.4c0-0.1,0-0.3,0-0.4c0-0.1-0.1-0.2-0.1-0.3
	c-0.1-0.1-0.1-0.2-0.2-0.3c0,0,0,0-0.1-0.1c0-0.1-0.1-0.1-0.2-0.1c0,0-0.1,0-0.1-0.1c-0.1,0-0.1-0.1-0.2,0c0,0,0.1,0,0.1,0.1
	c0,0,0,0,0,0c-0.1,0-0.2,0-0.2,0c-0.1,0-0.2,0.1-0.3,0.2c-0.1,0.1-0.1,0.2-0.2,0.3c0,0.1-0.1,0.2-0.1,0.3c0,0.1,0,0.2-0.1,0.4
	c0,0.1,0,0.2,0,0.3c0,0,0,0,0,0c0,0,0.1,0.1,0.1,0.1c0,0,0,0.1,0.1,0.1c0.1,0.1,0.1,0.1,0.2,0.2c0.1,0.1,0.2,0.1,0.3,0.2
	c-0.1,0-0.3,0-0.4,0c-0.1,0-0.1,0-0.2-0.1c0,0,0,0,0,0c0,0.1,0.1,0.3,0.1,0.4c0.1,0.1,0.1,0.3,0.2,0.3c0.1,0.1,0.2,0.2,0.3,0.2
	c0.1,0,0.2-0.1,0.3-0.1c0.1-0.1,0.2-0.2,0.3-0.3c0,0,0,0,0-0.1c-0.1,0-0.1,0-0.2,0c0,0-0.1,0-0.1-0.1c0,0,0.1-0.1,0.1-0.1
	c0.1,0,0.2-0.1,0.2-0.2c0.1-0.1,0.2-0.2,0.2-0.3C23.8,14.3,23.8,14.3,23.8,14.2z M22.7,13L22.7,13c-0.1,0-0.1,0.1-0.1,0.2
	c0,0.1,0,0.2,0,0.3c0,0.1-0.1,0.1-0.1,0.1c0,0.1,0,0.1,0,0.2c-0.1,0-0.1-0.2-0.1-0.2c0-0.1,0.1-0.1,0.1-0.2c0,0,0,0,0-0.1
	c0,0,0,0,0,0c0,0,0,0,0,0c0,0,0-0.1,0-0.1c0-0.1,0-0.1,0.1-0.1C22.6,13,22.7,13,22.7,13z M22.9,15.3L22.9,15.3c0,0-0.3,0-0.2-0.2
	C22.7,14.9,23,15.1,22.9,15.3z M23.7,14.3L23.7,14.3c-0.1,0-0.1,0.2-0.2,0.2c0,0,0-0.1,0-0.1C23.6,14.3,23.6,14.2,23.7,14.3
	c-0.1-0.1-0.1-0.1,0-0.1C23.7,14.2,23.7,14.2,23.7,14.3z M22.9,15.2C22.9,15.2,22.9,15.2,22.9,15.2L22.9,15.2
	C22.9,15.2,22.9,15.2,22.9,15.2z M18.9,13c-0.2,0.1-0.5,0.2-0.7,0.1c-0.1-0.1-0.2-0.2-0.4-0.2c-0.1,0-0.2,0.1-0.2,0.2
	c0,0.2,0.1,0.2,0.2,0.3c0.1,0.1,0.2,0.2,0.2,0.3c0.1,0.1,0.2,0.2,0.3,0.2c0.1,0,0.2-0.2,0.2-0.3c0-0.2,0.1-0.3,0.3-0.4
	C18.9,13.2,19,13.2,18.9,13C19,13.1,18.9,13,18.9,13z M18.9,13C18.9,13,18.9,13,18.9,13c0,0,0.1,0,0.1,0c0,0,0,0,0,0L18.9,13z
	 M19.7,10.4C19.7,10.4,19.8,10.4,19.7,10.4c0.1-0.1,0.1-0.2,0.1-0.3c0-0.1-0.1-0.2-0.1-0.3c0-0.1-0.1-0.2-0.2-0.3
	c-0.1-0.1-0.2-0.2-0.3-0.3C19.1,9.1,19,9.1,18.9,9c-0.1,0-0.2,0-0.4,0c-0.1,0-0.2,0-0.4,0.1c-0.1,0-0.2,0.1-0.3,0.2
	c-0.1,0.1-0.2,0.2-0.3,0.3c-0.1,0.1-0.1,0.2-0.2,0.3c0,0.1-0.1,0.2-0.1,0.4c0,0.1,0,0.2,0,0.4c0,0.1,0,0.2,0,0.4c0,0,0,0.1,0,0.1
	c0,0,0,0.1,0,0.1c0,0.1,0.1,0.1,0.1,0.2c0,0.1,0,0.1,0.1,0.2c0,0,0,0.1,0.1,0.1c0,0,0,0,0.1,0.1c0,0,0,0,0,0.1c0,0,0.1,0.1,0.2,0.1
	c0,0,0,0,0.1,0c0,0,0.1,0,0.1,0c-0.1,0-0.1,0-0.2,0c-0.1,0-0.1,0-0.2-0.1c0,0-0.1,0-0.1,0c0,0.1,0,0.1,0.1,0.2
	c0,0.1,0.1,0.2,0.2,0.3c0.1,0.1,0.1,0.2,0.2,0.3c0.1,0.1,0.2,0.1,0.3,0.1c0.1,0,0.3,0,0.4,0c0.1,0,0.2-0.1,0.3-0.2
	c0.1-0.1,0.2-0.2,0.3-0.3c0.1-0.1,0.1-0.2,0.2-0.3c0,0-0.1,0.1-0.1,0.1c-0.1,0.1-0.2,0.1-0.4,0c0.1-0.1,0.1-0.1,0.2-0.2
	c0.1-0.1,0.1-0.1,0.2-0.2c0.1-0.1,0.2-0.2,0.2-0.3c0,0,0,0,0.1-0.1c0,0,0-0.1,0-0.1c0-0.1,0.1-0.2,0.1-0.3c0,0-0.1-0.1-0.1-0.1
	c0,0-0.1,0-0.1-0.1c0,0,0-0.1,0-0.1c0-0.1-0.1-0.1-0.1-0.2c0-0.1,0.1-0.1,0.2-0.1C19.6,10.4,19.7,10.4,19.7,10.4L19.7,10.4
	C19.7,10.4,19.7,10.4,19.7,10.4C19.7,10.4,19.7,10.4,19.7,10.4L19.7,10.4z M18.6,12.4L18.6,12.4c0,0.1-0.2,0.1-0.2-0.1
	c0-0.1,0.1-0.1,0.2-0.1C18.7,12.3,18.7,12.4,18.6,12.4z M19.3,10.2c0.1,0,0,0.1-0.1,0.1c-0.1,0-0.2,0-0.2-0.1c0-0.1,0-0.2,0-0.2
	c0-0.1,0.1-0.2,0.1-0.2c0-0.1-0.1,0-0.2,0c-0.1,0-0.1-0.2,0-0.2c0-0.1,0.2-0.1,0.2,0c0.1,0,0.1,0.1,0.1,0.2c0,0,0,0,0,0.1
	c0,0.1,0,0.1,0,0.2c0,0.1,0,0.2,0,0.2C19.4,10.1,19.3,10.2,19.3,10.2z M13.8,34.5c0,0,0,0.1,0,0.1C13.8,34.6,13.8,34.6,13.8,34.5
	C13.8,34.5,13.8,34.5,13.8,34.5z M12.9,11.3c0,0.1,0,0.3,0,0.4c0,0.1,0,0.2,0.1,0.3c0.1,0,0.2,0.1,0.2,0.2c0,0.1,0.1,0.1,0.1,0.2
	c0.1,0,0.1,0,0.2,0c0.1,0,0.1,0,0,0.1l0,0c-0.1,0-0.1,0-0.1-0.1c-0.1,0-0.1,0-0.2,0c0,0.1,0.1,0.2,0.1,0.2c0,0,0,0,0,0.1
	c0,0,0,0,0,0c0,0,0,0,0.1,0c0,0,0,0,0,0.1c0,0,0.1,0.1,0.1,0.1c0,0,0.1,0,0.1,0.1c0,0,0.1,0,0.1,0c0.1,0,0.3,0,0.4,0.1
	c0.1,0,0.1,0,0.2,0c0.1,0,0.2,0,0.2,0c-0.3,0.1-0.6,0.3-0.9,0.3c0,0,0,0,0,0c0.1,0.1,0.2,0.2,0.4,0.3c0.1,0.1,0.2,0.1,0.3,0.2
	c0,0,0.1-0.1,0.1-0.1c0.1-0.1,0.1-0.2,0.1-0.2c0-0.1,0-0.2,0.1-0.2c0.1-0.1,0.2,0,0.2,0.1c0,0,0,0,0,0l0,0.1c-0.1,0-0.1,0.2-0.1,0.2
	c0,0.1,0,0.1-0.1,0.2c0,0,0,0.1,0,0.1c0.1,0,0.2,0,0.4,0c0.2,0,0.3-0.1,0.4-0.1c0.1-0.1,0.3-0.1,0.4-0.2c0.1-0.1,0.2-0.2,0.3-0.3
	c0.1-0.1,0.2-0.2,0.3-0.4c0.1-0.1,0.1-0.3,0.2-0.4c-0.1,0.1-0.2,0.2-0.3,0.2c-0.1,0-0.2,0.1-0.2,0.1c-0.1,0-0.1-0.1,0-0.1
	c0.1-0.2,0.2-0.3,0.4-0.4c0.1-0.1,0.2-0.2,0.3-0.3c0-0.1,0-0.3,0-0.4c0-0.1,0-0.3,0-0.4c0,0-0.1,0-0.1,0c-0.1,0-0.2-0.3-0.2-0.4
	c0-0.1,0.1-0.1,0.2-0.1c0,0,0,0,0-0.1c0-0.2-0.1-0.3-0.1-0.5c0,0,0-0.1,0-0.1c0,0,0,0,0.1,0c0,0,0-0.1,0-0.2c0,0,0.1,0.1,0.2,0.1
	c0.1,0,0.1,0,0.1,0c-0.1-0.1-0.2-0.3-0.3-0.4c0,0,0,0,0,0l0,0c0,0-0.1,0-0.1,0c-0.1-0.1-0.2-0.1-0.2,0c0,0,0,0,0,0
	c0,0,0-0.1-0.1-0.1c-0.1-0.1-0.3-0.2-0.4-0.2c-0.1-0.1-0.3-0.1-0.4-0.1C15,9,14.9,9,14.7,9c-0.2,0-0.3,0.1-0.5,0.1
	c-0.1,0-0.3,0.1-0.4,0.2c-0.1,0.1-0.3,0.2-0.4,0.3c-0.1,0.1-0.2,0.2-0.3,0.4c-0.1,0.1-0.2,0.3-0.2,0.4c0,0.1,0,0.1-0.1,0.2
	c0.1,0,0.1,0.1,0.1,0.2c0,0.1,0,0.1,0.1,0.1l0,0c0,0,0,0,0,0.1c0,0,0.1,0.1,0,0.1l0-0.1c0,0,0,0,0,0c0,0.2,0,0.3,0,0.5
	c0,0.1,0,0.1-0.1,0c0,0-0.1-0.2-0.1-0.2C12.9,11.3,12.9,11.3,12.9,11.3z M16.2,11.5c0,0,0.1,0,0.1,0c0,0,0,0.1,0,0.1
	c0,0.1,0,0.1-0.1,0.2c0,0,0,0.1,0,0.1c0,0,0,0,0,0l0,0c0,0,0,0,0,0c0,0,0,0,0,0l0,0c0,0,0,0,0,0c0-0.1,0-0.1,0-0.2
	C16.2,11.6,16.2,11.5,16.2,11.5z M15.3,13.3c0-0.1,0.1-0.1,0.1-0.1c0,0,0,0,0,0.1c0,0,0,0,0,0c0,0,0,0,0,0c0,0-0.1,0.1-0.1,0.1
	C15.3,13.5,15.3,13.4,15.3,13.3z M14.9,13.2c0-0.1,0.1-0.1,0.2-0.1c0.1,0,0.1,0.1,0,0.1l0,0C15.1,13.3,14.9,13.3,14.9,13.2z
	 M14.3,9.7L14.3,9.7c0,0-0.1,0-0.1-0.1c0-0.1,0-0.2,0.1-0.2c0,0,0.1,0.1,0.1,0.1C14.4,9.6,14.4,9.7,14.3,9.7z M13.8,12.2
	c0.1-0.1,0.3,0.1,0.3,0.2c0,0.1,0.1,0.1,0.1,0.2c0.1,0,0.1,0,0.2,0c0.1,0,0.1,0,0,0.1l0,0c-0.1,0-0.1,0-0.1-0.1c-0.1,0-0.2,0-0.3,0
	c-0.1,0-0.2-0.1-0.2-0.2C13.8,12.4,13.8,12.3,13.8,12.2z M13.1,10.8c0,0,0-0.1,0.1-0.1c0-0.1,0.1-0.1,0.1-0.1
	c0.1-0.1,0.1-0.2,0.1-0.2c0-0.1,0-0.2,0.1-0.2c0.1-0.1,0.2,0,0.2,0.1c0,0,0,0,0,0l0,0.1c-0.1,0-0.1,0.2-0.1,0.2c0,0.1,0,0.1-0.1,0.2
	C13.4,10.7,13.3,10.7,13.1,10.8z M20.5,14.3c0.1,0,0.1-0.1,0.2-0.1c0.1-0.1,0.1-0.1,0.1-0.2l0,0c0,0,0,0,0,0
	c-0.1,0.1-0.3,0.2-0.4,0.3c-0.1,0.1-0.3,0.2-0.3,0.3c0,0,0,0.1,0.1,0.1c0.1,0,0.1-0.1,0.1-0.1C20.4,14.5,20.4,14.4,20.5,14.3z
	 M22.6,15.8L22.6,15.8c0-0.1-0.1-0.1-0.2-0.2c-0.1,0-0.2-0.1-0.2-0.2c-0.1,0-0.1-0.1-0.2,0c0,0.1,0,0.2,0.1,0.2
	c0.1,0.1,0.1,0.1,0.2,0.2c0.1,0,0.1,0.1,0.1,0.2c0.1,0.1,0.2,0.2,0.4,0.1c0.1-0.1,0.1-0.2,0-0.2C22.8,15.8,22.7,15.8,22.6,15.8z
	 M15,14.3L15,14.3c0-0.1-0.2,0-0.3-0.1c-0.1,0-0.1,0-0.2,0c0,0,0,0.1,0,0.1c0.1,0.1,0.2,0.1,0.3,0.1C15,14.5,15,14.5,15,14.3
	C15.1,14.4,15.1,14.4,15,14.3z M20.1,14C20.1,14,20.1,14,20.1,14C20,14.1,20,14.1,20,14.1c0,0,0,0.1,0,0.1c0,0,0,0.1,0.1,0.1
	c0,0,0-0.1,0-0.1C20.2,14.2,20.2,14.1,20.1,14C20.2,14.1,20.2,14.1,20.1,14l0,0.1C20.2,14.1,20.2,14,20.1,14z M16.1,14
	c0.1-0.1,0.2-0.2,0.2-0.4l0-0.1c-0.1,0.1-0.2,0.3-0.4,0.4c-0.1,0.1-0.3,0.1-0.4,0.3c0,0.1,0,0.1,0,0.1c0.1,0,0.2,0,0.2-0.1
	C15.9,14.3,16,14.1,16.1,14z M20.7,14.7l0,0.2C20.7,14.8,20.7,14.7,20.7,14.7z M17.7,14.3c0,0,0-0.1,0-0.1c0,0,0,0,0,0c0,0,0,0,0,0
	c0,0,0,0,0,0c0,0-0.1,0-0.1,0c0,0-0.1,0-0.1,0.1c0,0,0,0.1,0.1,0.1C17.5,14.3,17.6,14.3,17.7,14.3L17.7,14.3z M12.6,11.1
	c0,0.1,0.1,0.2,0.2,0.1c0.1,0,0.1-0.1,0.1-0.2l0,0c0,0,0,0,0-0.1c0,0-0.1-0.1-0.1-0.1C12.7,10.9,12.6,11,12.6,11.1z M20.7,14.6
	C20.7,14.6,20.7,14.7,20.7,14.6L20.7,14.6C20.7,14.6,20.7,14.6,20.7,14.6z M21.3,14C21.3,14,21.3,14,21.3,14L21.3,14
	C21.3,14,21.3,14,21.3,14c0.1,0,0.1,0,0.1,0c0,0,0.1-0.1,0.1-0.1c0,0,0,0,0-0.1l0,0c0,0,0,0,0-0.1c-0.1,0-0.2,0-0.2,0.1
	C21.2,13.9,21.2,14,21.3,14z M20.7,14.7C20.7,14.7,20.7,14.7,20.7,14.7c0-0.1,0-0.1,0-0.2c-0.1-0.1-0.2,0-0.2,0.1
	C20.5,14.7,20.6,14.8,20.7,14.7z M15.2,29C15.2,29,15.2,29,15.2,29C15.2,29,15.2,29,15.2,29L15.2,29z M13.7,17.1
	C13.7,17.1,13.7,17.1,13.7,17.1L13.7,17.1C13.7,17.2,13.7,17.1,13.7,17.1z M16,26.1C16,26.1,16,26.1,16,26.1
	C15.9,26.1,15.9,26.1,16,26.1L16,26.1z M15.9,26.1L15.9,26.1C16,26.1,16,26,15.9,26.1c0-0.1-0.1-0.2-0.2-0.1
	C15.7,26,15.8,26.1,15.9,26.1C15.9,26.1,15.9,26.1,15.9,26.1z M14.2,14.8C14.2,14.8,14.2,14.8,14.2,14.8L14.2,14.8
	c0.3-0.1-0.2-0.3-0.2-0.1C14,14.8,14.1,14.8,14.2,14.8z M15.9,26.1C16,26.1,16,26.1,15.9,26.1C15.9,26.1,15.9,26.1,15.9,26.1z
	 M16.1,25.5C16.1,25.5,16.1,25.5,16.1,25.5L16.1,25.5C16.1,25.5,16.1,25.5,16.1,25.5c-0.1-0.1-0.1-0.1-0.1,0c0,0,0,0.1,0.1,0.1
	C16,25.6,16,25.6,16.1,25.5C16.1,25.6,16.1,25.5,16.1,25.5z M14.6,21.6L14.6,21.6c0-0.1,0-0.1,0-0.2c-0.1,0-0.2,0-0.2,0
	c0,0.1,0,0.2,0.1,0.2C14.5,21.7,14.6,21.6,14.6,21.6C14.6,21.6,14.6,21.6,14.6,21.6z M15.2,29c0-0.1,0.1-0.1,0.1-0.2
	c0,0,0-0.1,0-0.1c-0.1,0-0.1,0.1-0.1,0.1c0,0-0.1,0.1-0.1,0c0,0.1,0,0.1-0.1,0.2c0,0.1-0.1,0.2-0.1,0.3c0,0-0.1,0.1,0,0.2
	c0.1,0,0.1,0,0.1-0.1C15,29.3,15,28.9,15.2,29z M15.5,28C15.5,28,15.5,27.9,15.5,28C15.5,27.9,15.5,27.9,15.5,28
	c-0.1-0.1-0.2-0.1-0.2,0c0,0.1,0.1,0.1,0.1,0.1C15.5,28.1,15.5,28,15.5,28z M20.6,34.6C20.6,34.6,20.6,34.5,20.6,34.6L20.6,34.6
	C20.7,34.6,20.6,34.6,20.6,34.6z M22.2,27c0,0.1,0,0.2,0.1,0.2C22.3,27.1,22.3,27.1,22.2,27c0.1,0,0.2,0,0.2-0.1c0-0.1,0-0.2,0-0.3
	c0-0.1,0-0.1,0-0.2l0.1,0c0-0.1-0.1-0.1-0.2,0c0,0-0.1,0-0.1,0.1c0,0,0,0.1,0,0.1c0,0,0,0,0,0c0,0,0,0,0,0c0,0,0,0,0,0.1
	C22.2,26.8,22.2,26.9,22.2,27z M21.4,29.6c0,0.1,0.1,0.1,0.2,0.1c0,0,0,0,0,0c0,0,0.1,0,0-0.1c0,0,0,0,0,0c0,0,0,0,0,0
	c0,0,0-0.1,0-0.1l0,0.1c0,0,0,0-0.1,0C21.4,29.4,21.3,29.5,21.4,29.6z M13.4,17.8c-0.1,0-0.1-0.1-0.2-0.1c0-0.1,0.1,0,0.1-0.1
	c0.1,0,0.1-0.1,0.1-0.2c0-0.1,0.1-0.1,0.2-0.2c0.1-0.1,0.1-0.2,0.1-0.2l0,0c0,0,0,0,0,0c-0.1,0-0.1,0-0.2,0.1c0,0.1-0.1,0.1-0.2,0.1
	c0,0,0,0.1,0,0.1c0,0-0.1,0.1-0.1,0.1c0,0-0.1,0-0.1,0.1C13,17.7,13.2,17.9,13.4,17.8C13.4,17.9,13.4,17.8,13.4,17.8z M16.5,9.6
	C16.5,9.6,16.5,9.6,16.5,9.6L16.5,9.6C16.6,9.7,16.5,9.7,16.5,9.6z M24.3,18.9C24.3,18.9,24.3,18.9,24.3,18.9L24.3,18.9
	C24.4,18.9,24.4,18.9,24.3,18.9C24.4,18.9,24.4,18.9,24.3,18.9C24.4,18.9,24.4,18.9,24.3,18.9c0.1-0.1,0.1-0.1,0.1-0.1
	c0,0-0.1-0.1-0.2,0C24.2,18.8,24.2,18.8,24.3,18.9C24.3,18.9,24.3,18.9,24.3,18.9z M13.1,19.3c0,0.1,0.1,0.2,0.1,0.2
	c0.1,0,0.1-0.1,0.2,0c0.1,0.1,0,0.2,0,0.3c0,0.1,0,0.2,0.1,0.2c0,0.1,0.1,0.1,0.2,0c0,0,0,0,0,0c0,0.1,0.1,0.2,0.1,0.2
	c0,0.1,0.1,0.2,0.2,0.3c0,0.1,0,0.2,0.1,0.3c0,0.1,0.1,0.2,0.2,0.2c0,0.1,0.1,0.2,0.2,0.3c0,0,0,0.1,0.1,0.1c0,0,0,0,0,0
	c0,0,0-0.1,0-0.1c0-0.1,0.1-0.1,0.2-0.1c0.1-0.1,0.1-0.1,0.2-0.1c0,0,0,0,0,0l0,0c0,0,0,0,0,0c0,0,0,0.1,0,0.1l0-0.1
	c-0.1,0-0.1,0.1-0.1,0.2c0,0.1-0.1,0.1-0.2,0.2c0,0,0,0,0,0c0.1,0.1,0.1,0.2,0.1,0.3c0.1,0.1,0.2,0.1,0.2,0.2c0,0,0,0,0,0
	c0,0,0,0,0,0c0.1-0.1,0.3,0.1,0.3,0.2c0,0.1,0.1,0.1,0.1,0.2c0.1,0,0.1,0,0.2,0c0.1,0,0.1,0,0,0.1l0,0c-0.1,0-0.1,0-0.1-0.1
	c-0.1,0-0.2,0-0.3,0c0,0,0,0,0,0c0.1,0.1,0.1,0.1,0.2,0.2c0,0.1,0,0.1,0,0.2c0,0,0,0,0,0c0,0.2,0.1,0.4,0.3,0.4c0,0-0.1,0.1-0.1,0.1
	c0,0,0,0.1,0.1,0.2c0.1,0.1,0.1-0.2,0-0.2c0,0,0,0,0,0l0,0c0,0,0,0,0,0l0,0c0.2,0.2,0.3,0.4,0.4,0.6c0.1,0.1,0.3,0.3,0.4,0.3
	c0.1,0.1,0.3,0.2,0.5,0.3c0.2,0.1,0.3,0.2,0.5,0.3c0.1,0,0.1,0.1,0.2,0.1c0.1,0,0.2,0,0.3,0C17.8,25,17.7,25,17.5,25
	c-0.2,0-0.3-0.2-0.5-0.2c-0.2-0.1-0.3-0.1-0.5-0.2c-0.2-0.1-0.3-0.2-0.4-0.3c0,0-0.1-0.1-0.1-0.1c0,0,0,0.1,0,0.1
	c0,0.1,0.1,0.2,0.1,0.3c0,0,0,0,0,0c-0.1,0-0.1-0.1-0.2-0.1c0,0,0,0-0.1-0.1c0,0,0-0.1,0-0.1c0-0.1-0.1-0.1-0.1-0.2
	c0,0-0.1-0.2-0.1-0.2l0-0.1c0,0,0,0,0,0c-0.1,0-0.2,0.1-0.2,0.2c0,0.1,0.1,0.2,0.1,0.2c0.1,0.1,0.1,0.1,0.1,0.2c0,0.1,0,0.1,0,0.2
	c0,0,0.1,0.1,0.1,0.1c0,0,0-0.1,0.1-0.1c0,0,0,0,0,0c0.1,0.1,0.2,0.1,0.3,0.1c0,0.1,0,0.1,0.1,0.2c0,0,0,0.1,0,0.1
	c0.1,0.1,0.3,0.1,0.3,0.2c0.1,0,0.1,0.1,0.2,0.1c0.1,0,0.2,0,0.3,0.1c-0.2,0.1-0.5,0-0.7,0c0,0,0,0,0,0c0,0,0,0.1,0,0.1
	c0,0.1,0,0.2,0,0.3c0,0.1,0.1,0.2,0,0.3c0,0.1,0,0.2,0,0.3c0,0.1,0,0.2,0,0.3c0,0,0,0,0,0c0-0.1,0.1-0.1,0.1-0.1c0,0.1,0.1,0,0.1,0
	c0,0,0.1-0.1,0.1,0c0,0,0,0.1,0,0.1c0,0-0.1,0.1-0.1,0.1c0,0,0,0,0,0l0,0c0,0,0,0,0,0c-0.1-0.2-0.3,0.2-0.4,0.3c0,0,0,0,0,0
	c0,0-0.1,0.1-0.1,0.1c0,0.1,0,0.1-0.1,0.2c0,0.1-0.1,0.1-0.1,0.2c0,0.1,0,0.1,0,0.2c0-0.1,0.1-0.1,0.1-0.2c0,0,0,0.1,0,0.1
	c0,0,0,0,0,0c0,0.1,0,0.1,0,0.2c0,0,0,0.1,0,0.1c0,0,0,0,0.1,0c0.2,0,0.3,0.1,0.4,0.2c0,0-0.2,0-0.3,0c-0.1,0-0.1,0-0.2,0
	c0,0-0.1,0-0.1,0c0,0,0,0.1,0,0.1c0,0.1,0,0.2-0.1,0.3c0,0.1-0.1,0.1-0.1,0.1c0.2,0,0.5,0,0.7,0c0.3,0,0.6,0,0.9,0.1
	c-0.1,0-0.1,0-0.2,0c-0.1,0-0.1,0-0.2,0c-0.1,0-0.1,0-0.2,0c-0.1,0-0.1,0-0.2,0.1c-0.1,0-0.2,0-0.3,0c-0.1,0-0.2,0-0.3,0.1
	c-0.2,0.1-0.4,0.2-0.6,0.3c0,0,0,0,0,0c0,0.1-0.1,0.2-0.1,0.2c-0.1,0.1-0.1,0.2-0.2,0.2c0,0,0,0.1,0,0.1c0,0,0,0,0,0
	c0,0.1,0.1,0.2,0.1,0.2c0,0,0,0,0-0.1l0-0.1c0,0,0,0,0,0c0,0,0,0.1-0.1,0.1l0,0.2c0,0,0-0.1,0-0.1c-0.1,0.1-0.2,0.2-0.3,0.2
	c0,0,0,0,0,0c0,0,0,0,0,0.1c0,0.1-0.1,0.1-0.1,0.2c-0.1-0.1-0.3,0-0.3,0.1c-0.1,0.1,0,0.2,0.1,0.2l0,0c0,0,0,0,0,0c0,0,0,0,0,0
	c0,0,0,0,0,0c0,0,0,0,0,0c0,0,0,0,0,0.1c0,0,0,0,0,0c0,0,0,0,0,0l0,0c0,0,0,0,0,0.1c0,0,0.1,0.1,0,0.1l0-0.1c0,0,0,0,0,0
	c0,0,0,0,0,0c0,0.2,0,0.3,0,0.5c0,0.1,0,0.1-0.1,0c0,0,0-0.1,0-0.1c0,0.1,0,0.1,0,0.2c0,0.1-0.1,0.2-0.1,0.3c0,0.1,0,0.2-0.1,0.3
	c0,0.1-0.1,0.2-0.1,0.3c0,0,0,0,0,0c-0.2-0.1-0.2,0.2-0.2,0.3c0,0.1,0,0.2,0,0.2c0,0,0.1,0.1,0.1,0.1c0,0.1,0,0.1,0,0.2
	c0,0.1,0,0.2,0,0.3c0,0.1,0,0.2,0,0.3c0-0.1,0-0.1,0.1-0.1c0,0,0.2,0,0.2,0l-0.1,0c0,0.1,0,0.1,0,0.2c0,0.1,0,0.2,0,0.3
	c0,0.1-0.1,0.1-0.1,0.1c0,0,0,0,0,0c0,0,0,0.1,0,0.1c0,0.1,0.1,0.2,0.1,0.3c0,0.1,0.1,0.2,0.2,0.3c0,0.1,0,0.2,0.1,0.3
	c0,0.1,0.1,0.1,0.2,0.2c0.1,0,0.2,0,0.3,0.1c0,0.1,0.1,0.2,0.1,0.2c0,0,0,0,0-0.1l0-0.1c0,0,0,0,0,0c0,0,0,0.1-0.1,0.1l0,0.2
	c0,0,0-0.1,0-0.1c0,0-0.1,0.1-0.1,0.1c0,0.1,0.1,0.1,0.1,0.1c0.1,0.1,0.2,0.1,0.2,0.2c0.1,0.1,0.2,0.1,0.3,0.2
	c0.1,0.1,0.1,0.2,0.2,0.2c0.1,0.1,0.2,0.1,0.3,0.1c0.1,0,0.2,0.1,0.3,0.2c0.1,0,0.2,0,0.3,0.1c0.1,0,0.2,0.1,0.3,0.1
	c0.1,0,0.2,0,0.3,0c0,0,0,0,0.1,0c0-0.1-0.1-0.1-0.1-0.2c0-0.1,0.1-0.1,0.2-0.1c0.1,0,0.1,0,0.2,0l0,0c0,0,0,0,0,0c0,0,0,0,0,0l0,0
	c0.1,0,0.2,0.1,0.2,0.3c0,0,0.1,0,0.1,0c0.1,0,0.2-0.1,0.3-0.1c0.1,0,0.2,0,0.3,0c0.1,0,0.2-0.1,0.3-0.1c0.1,0,0.2-0.1,0.3-0.2
	c0.1-0.1,0.2-0.1,0.3-0.2c0.1-0.1,0.1-0.2,0.2-0.3c0.1-0.1,0.1-0.1,0.2-0.2c0.1-0.1,0.2-0.1,0.3-0.2c0.1-0.1,0.1-0.2,0.1-0.3
	c0,0,0,0,0,0c0,0,0-0.1-0.1-0.1c0-0.1,0-0.1,0-0.2c0-0.1,0-0.4,0.2-0.3l0.1,0.1c0,0,0,0,0,0l0,0c0,0,0,0,0,0c0,0.1,0,0.3,0,0.4
	c0,0,0,0,0-0.1c0-0.1,0.1-0.2,0.1-0.3c0-0.1,0.1-0.2,0.2-0.3c0-0.1,0-0.2,0-0.2c0,0,0.1,0.1,0.1,0c0,0,0-0.1,0-0.2
	c0,0,0.1,0.1,0.1,0.1c0,0.1,0.1,0.1,0.1,0c0-0.2-0.1-0.3-0.1-0.5c0,0,0,0,0,0l0,0c0,0-0.1,0-0.1-0.1c0,0,0-0.1,0-0.1
	c0-0.1,0-0.2,0.1-0.3c0-0.1,0.1-0.2,0.1-0.3c0-0.1,0-0.2,0-0.3c0-0.1,0-0.2,0.1-0.2c0,0,0,0,0,0.1c0,0.1,0,0.1-0.1,0.2
	c-0.1,0.2-0.2,0.2-0.4,0.2c0,0,0-0.1,0.1-0.1c0-0.1,0.1-0.1,0.1-0.1c0.1-0.1,0.1-0.2,0.1-0.2c0-0.1,0-0.2,0.1-0.2c0,0,0,0,0,0
	c0,0,0-0.1,0-0.1c0-0.1,0.1-0.2,0.1-0.3c0-0.1,0-0.2,0-0.3c0,0,0-0.1,0-0.1c0,0,0,0,0,0c0,0,0,0,0,0c0,0,0,0,0,0
	c0,0,0.1-0.1,0.1-0.1c0,0,0.1,0,0,0c0,0,0-0.1,0-0.1c0,0,0,0,0,0c0,0,0,0,0-0.1c0,0-0.1,0-0.1,0c0,0-0.1,0-0.1,0c0,0,0,0,0,0
	l0.1-0.1c-0.1,0-0.1-0.1-0.1-0.1c0,0,0,0,0,0c0-0.1,0-0.2,0-0.3c0-0.1,0.1-0.2,0.1-0.3c0-0.1-0.1-0.2,0-0.3c0-0.1,0.1-0.2,0.1-0.3
	c0-0.1,0-0.2,0-0.3c0-0.1,0-0.2,0-0.2c0,0,0,0.1-0.1,0.1c-0.1,0-0.1,0-0.1-0.1c0-0.1-0.1-0.3,0-0.4c0,0,0.1-0.1,0.1-0.1
	c0,0,0-0.1,0.1-0.1c0.1,0,0.1,0.1,0.2,0.2c0,0,0,0,0,0.1c0-0.1,0-0.2,0-0.3c0-0.1,0.1-0.2,0.1-0.3c0-0.1,0.1-0.2,0.1-0.3
	c0-0.1,0-0.2,0-0.3c0-0.1,0.1-0.2,0.2-0.3c0-0.1,0.1-0.2,0.1-0.3c0-0.1,0-0.2,0.1-0.3c0-0.1,0.1-0.2,0.2-0.3c0,0,0,0,0,0
	c-0.3,0.1-0.6,0.2-0.8,0.5c-0.2,0.3-0.4,0.7-0.6,1c-0.1,0.1-0.3,0.3-0.5,0.4C20,28.9,19.9,29,19.8,29c-0.1,0-0.1,0,0-0.1
	c0.1-0.1,0.2-0.2,0.3-0.3c0.3-0.3,0.5-0.6,0.7-0.9c0.2-0.3,0.3-0.7,0.6-0.9c0.3-0.3,0.7-0.4,1-0.7c0,0,0.1-0.1,0.1-0.1
	c0,0,0.1-0.1,0.1-0.1c0-0.1,0.1-0.2,0.1-0.3c0-0.1,0.1-0.2,0.1-0.3c0-0.1,0-0.2,0.1-0.3s0.1-0.2,0.2-0.3c0-0.1,0.1-0.2,0.2-0.3
	c0,0,0-0.1,0-0.1c0,0,0.1,0.1,0.1,0.1l0,0c0.1,0,0.1-0.1,0-0.1c0,0-0.1,0-0.1,0c0-0.1,0-0.1,0-0.2c0-0.1,0.1-0.2,0.1-0.3
	c0-0.1,0.1-0.2,0.2-0.3c0-0.1,0.1-0.2,0.1-0.3c0-0.1,0.1-0.2,0.1-0.3c0-0.1,0-0.2,0-0.3c0-0.1,0-0.1,0-0.2c0,0,0,0,0,0
	c0,0-0.1,0-0.1-0.1c0,0,0-0.1,0-0.1c0-0.1-0.1-0.1-0.1-0.2c0-0.1,0.1-0.1,0.2-0.1c0.1,0,0.1,0,0.1,0c0,0,0,0,0,0c0-0.1,0-0.2,0-0.3
	c0-0.1,0-0.2,0-0.3c0,0,0,0,0-0.1c0.1,0,0-0.2,0.1-0.2c0.1,0,0.2-0.1,0.3,0l0,0c0,0-0.1-0.1-0.1-0.1c0,0-0.1-0.1-0.1-0.1
	c-0.1,0-0.1,0-0.2,0c0-0.1,0-0.1,0-0.2c0-0.1,0-0.2-0.1-0.3c0,0,0,0.1-0.1,0.1c0-0.1,0-0.1,0-0.2c0,0,0-0.1,0.1-0.1c0,0,0-0.1,0-0.1
	c0-0.1,0-0.1,0-0.2c0,0,0,0.1-0.1,0.1c-0.1,0.2-0.2,0.2-0.4,0.2c0,0,0-0.1,0.1-0.1c0-0.1,0.1-0.1,0.1-0.1c0.1-0.1,0.1-0.2,0.1-0.2
	c0,0,0-0.1,0-0.1c0,0,0,0,0,0c0-0.1,0-0.3,0.1-0.4c0-0.2-0.1-0.4-0.2-0.5c-0.1-0.1-0.2-0.2-0.3-0.2c-0.1-0.1-0.1-0.1-0.2-0.2
	c0-0.1-0.1-0.2-0.1-0.3c-0.1-0.1-0.1-0.2-0.2-0.2c-0.1-0.1-0.1-0.2-0.1-0.3c0,0-0.1-0.1-0.1-0.1c0,0,0,0,0-0.1c0-0.1,0-0.3,0-0.4
	c0-0.3-0.2-0.5-0.5-0.6c-0.1,0-0.3,0-0.4,0c-0.1,0-0.2,0-0.2,0c0,0-0.1-0.1-0.1-0.1c0,0,0,0-0.1,0c0,0-0.1,0.1-0.1,0.1
	c0,0.1,0,0.1,0,0.2c-0.1,0-0.1-0.2-0.1-0.2c0,0,0-0.1,0-0.1c0,0-0.1,0-0.1-0.1c-0.1,0-0.1-0.1-0.2-0.2c0-0.1,0-0.2-0.1-0.3
	c-0.1-0.2-0.3-0.3-0.6-0.3c-0.1,0-0.2,0-0.4,0c0,0-0.1,0-0.1-0.1c-0.1,0-0.1-0.1-0.2-0.1c0,0,0,0,0,0c0,0.1-0.1,0.1-0.2,0.1
	c-0.1,0-0.1-0.1-0.2-0.1c0,0-0.1,0-0.1-0.1c0,0,0-0.1,0-0.1c0,0-0.1-0.1-0.1-0.1c0,0,0,0,0,0c0,0.1,0,0.1-0.1,0.2
	c-0.1,0.2-0.2,0.2-0.4,0.2c0,0,0-0.1,0.1-0.1c0-0.1,0.1-0.1,0.1-0.1c0.1-0.1,0.1-0.2,0.1-0.2c0,0,0,0,0,0c-0.1-0.1-0.1-0.1-0.2-0.2
	c-0.1-0.1-0.1-0.2-0.3-0.3c-0.1,0-0.2,0-0.3,0.1c-0.1,0.1-0.3,0.1-0.5,0.1c-0.1,0-0.2,0-0.3,0.1c0,0,0,0,0,0c-0.1,0-0.2,0-0.3,0
	c-0.1,0-0.2,0-0.3,0c0,0,0,0,0,0.1c0,0.1-0.1,0.1-0.1,0.1c0,0.1,0,0.1,0,0.2c-0.1,0-0.1-0.2-0.1-0.2c0-0.1,0-0.1,0.1-0.1
	c-0.1,0-0.2,0-0.2,0c-0.1-0.1-0.2-0.1-0.4-0.2c-0.3-0.1-0.7,0.1-1,0.3c-0.1,0.1-0.2,0.2-0.3,0.4c-0.1,0.1-0.1,0.3-0.1,0.4
	c-0.1,0-0.2,0.1-0.2,0.1c-0.1,0.1-0.1,0.2-0.2,0.3c-0.1,0.1-0.1,0.2-0.2,0.3c-0.1,0.1-0.1,0.2-0.1,0.3c0,0,0,0,0,0
	c0.4-0.3,0.8-0.4,1.2-0.6c0,0,0,0,0-0.1c0.1,0,0.1,0,0.2,0c0,0,0,0,0.1,0c0,0,0,0,0.1,0c0.1,0,0.1,0,0.1,0c0.1,0,0.1,0,0.1-0.1
	c0.1,0.1,0.1,0,0.1,0c0,0,0.1,0,0.2,0c0.1,0,0.1,0,0.2,0c0.1,0,0.1,0,0.2,0c0,0,0,0,0,0c0,0,0,0,0,0l0,0c0,0,0,0,0,0
	c0,0-0.1,0.1-0.1,0.1c0,0-0.1,0-0.1,0c-0.1,0.1-0.2,0-0.2,0.2c-0.1,0-0.1,0-0.2,0c-0.1,0-0.1,0-0.2,0c0,0-0.1,0-0.1,0c0,0,0,0-0.1,0
	c-0.1,0-0.1,0-0.2,0c-0.1,0-0.1,0.1-0.2,0.1c0,0-0.1,0-0.1,0.1c0,0-0.1,0.1-0.1,0.1c-0.1,0-0.1,0-0.1,0.1c-0.1,0-0.1,0-0.1,0
	c0,0,0,0.1-0.1,0.1c-0.4,0.6-1,1.3-1,2c0,0.2,0,0.4,0.1,0.6c0,0,0,0,0,0c0,0,0,0,0,0c0-0.1-0.1-0.1-0.2-0.1
	C13.2,19.2,13.1,19.2,13.1,19.3z M15.1,15L15.1,15c0,0.1-0.2,0.1-0.2-0.1c0-0.1,0.1-0.1,0.2-0.1C15.1,14.9,15.1,15,15.1,15z
	 M22.4,25c0.1-0.1,0.1-0.2,0.1-0.3c0-0.1,0-0.1,0.1-0.2c0,0.1,0.1,0,0.1,0c0,0,0.1-0.1,0.1-0.1c0,0,0,0.1,0,0.1
	c0,0.1-0.1,0.1-0.1,0.2c0,0,0,0,0,0l0,0c0,0,0,0,0,0c-0.2-0.2-0.2,0.3-0.2,0.4c0,0-0.1,0.1-0.1,0.1C22.3,25.2,22.4,25.1,22.4,25z
	 M14.2,34.1c0,0,0-0.1,0.1-0.1c0,0,0.1,0,0.1-0.1c0,0,0-0.1,0-0.1c0,0,0.1,0.1,0.1,0.2c0,0,0,0.1,0,0.1c0,0.1,0,0.2-0.1,0.3
	c-0.1,0.1-0.1,0-0.2-0.1C14.2,34.2,14.2,34.2,14.2,34.1z M14.5,32.7c0,0,0,0.1,0,0.1l0,0.1c0,0,0,0,0,0c0,0,0,0,0,0c0,0,0,0,0,0
	c0,0,0,0-0.1,0c0,0,0-0.1,0-0.1c0,0,0,0,0,0c0,0.1,0,0.1,0,0.2c0,0-0.1,0.1-0.1,0.1c0,0,0,0,0-0.1c0-0.1,0-0.2,0-0.3
	c0-0.1,0-0.2,0.1-0.2c0.1,0,0.1,0.2,0.1,0c0,0,0-0.1,0.1-0.1c0,0,0.1,0,0.1,0C14.5,32.6,14.5,32.6,14.5,32.7z M14.8,35.4
	c-0.1,0.1-0.3,0.1-0.4-0.1c0-0.1,0-0.1,0-0.2c0,0,0-0.1,0-0.1c0,0,0-0.1,0-0.1c0-0.1,0-0.1,0-0.2c0-0.1,0-0.1,0.1-0.2c0,0,0,0,0,0
	l0,0c0,0,0,0,0,0c0,0,0,0,0.1,0.1l-0.1-0.1c0,0.1,0.1,0.2,0.1,0.2c0,0.1,0,0.2,0,0.2c0,0.1,0.1,0.1,0.1,0.2c0,0.1-0.1,0.1,0,0.1
	C14.6,35.3,14.6,35.3,14.8,35.4C14.8,35.3,14.8,35.3,14.8,35.4z M16.3,27.8C16.3,27.8,16.3,27.8,16.3,27.8
	C16.3,27.9,16.3,27.9,16.3,27.8C16.3,27.9,16.4,27.9,16.3,27.8c0.1,0.1,0,0.2,0,0.2c-0.1,0-0.1-0.1-0.1-0.1
	C16.2,27.8,16.2,27.7,16.3,27.8z M16.4,27.5L16.4,27.5C16.4,27.4,16.4,27.4,16.4,27.5c-0.1,0-0.2,0-0.2-0.2
	C16.3,27.1,16.7,27.3,16.4,27.5z M16.8,28.5c-0.1,0.1-0.1,0-0.1-0.1c0-0.1,0-0.2,0.1-0.2C16.8,28.3,16.8,28.5,16.8,28.5l0-0.2
	c0,0,0,0,0-0.1C16.8,28.4,16.8,28.5,16.8,28.5z M17,26L17,26c-0.1,0-0.1,0.2-0.2,0.2c0,0,0-0.1,0-0.1C16.9,26.1,16.9,26,17,26
	c-0.1-0.1-0.1-0.1,0-0.1C17,25.9,17,26,17,26z M17.1,36.6c0,0,0.1,0,0.2,0c0,0,0,0.1,0,0.1c0,0,0,0,0,0c0,0,0,0,0,0c0,0,0,0,0,0l0,0
	c0,0,0,0,0,0c0,0-0.1,0-0.1-0.1C17,36.7,17,36.6,17.1,36.6z M17.1,27.5L17.1,27.5C17.1,27.5,17.1,27.5,17.1,27.5
	c-0.1,0-0.1,0-0.1-0.1c0,0,0,0,0.1,0l0,0c0,0,0,0,0,0c0,0,0,0,0,0C17.2,27.4,17.2,27.5,17.1,27.5z M17.3,29.2
	C17.3,29.3,17.3,29.3,17.3,29.2c0,0.1-0.1,0.1-0.1,0.1c-0.1,0-0.1-0.1-0.1-0.1C17.2,29.2,17.2,29.2,17.3,29.2
	C17.3,29.2,17.3,29.2,17.3,29.2L17.3,29.2C17.3,29.2,17.3,29.2,17.3,29.2z M18.3,25C18.2,25.1,18.2,25,18.3,25c-0.1-0.1,0-0.2,0-0.2
	C18.3,24.9,18.2,25,18.3,25L18.3,25C18.3,25,18.3,25,18.3,25z M19.4,29.2c-0.1,0-0.1-0.1-0.1-0.1c0-0.1,0.1,0,0.1,0c0,0,0,0,0,0l0,0
	c0,0,0,0,0,0C19.5,29.1,19.4,29.2,19.4,29.2C19.4,29.2,19.4,29.2,19.4,29.2z M17.6,36.5c0.2,0,0.3,0,0.5,0c0.1-0.1,0.2-0.2,0.3-0.3
	c0.1-0.1,0.2,0,0.1,0.1c0.1,0,0.1-0.1,0.2-0.1c0.1-0.1,0.1-0.1,0.2-0.1c0.1,0,0.2-0.1,0.2-0.1c0,0,0.1-0.1,0.1-0.1
	c0,0,0.1-0.1,0.1-0.1c0,0,0,0.1,0,0.1l0,0c-0.3,0.2-0.5,0.4-0.8,0.6c-0.1,0.1-0.3,0.1-0.5,0.1c-0.2,0-0.3,0.1-0.5,0
	C17.4,36.7,17.5,36.6,17.6,36.5z M18,25.6c0.1-0.1,0.1-0.1,0.2-0.1c0,0,0,0,0,0l0,0c0,0,0,0,0,0c0,0,0,0.1,0,0.1l0-0.1
	c-0.1,0-0.1,0.1-0.1,0.2c-0.1,0.1-0.1,0.1-0.2,0.2c0,0,0,0.1-0.1,0.2c-0.1,0-0.1,0-0.1,0.1c0.1,0,0.1,0.1,0.2,0.1
	c0.1,0,0.1,0.1,0,0.1c-0.2,0-0.3-0.2-0.2-0.4c0-0.1,0.1-0.1,0.1-0.1c0,0,0.1-0.1,0.1-0.1c0,0,0-0.1,0-0.1C17.9,25.7,18,25.7,18,25.6
	z M16.7,15.9C16.7,15.8,16.7,15.8,16.7,15.9L16.7,15.9C16.8,15.8,16.8,15.8,16.7,15.9C16.8,15.8,16.8,15.8,16.7,15.9
	c0.1,0,0.2,0,0.1,0.1L16.7,15.9C16.8,15.9,16.8,15.9,16.7,15.9C16.7,15.9,16.7,15.9,16.7,15.9z M15.8,22.6
	C15.8,22.6,15.8,22.6,15.8,22.6c0,0,0-0.1,0-0.1C15.9,22.5,15.9,22.6,15.8,22.6L15.8,22.6C15.9,22.6,15.9,22.7,15.8,22.6L15.8,22.6
	C15.9,22.6,15.8,22.6,15.8,22.6C15.8,22.6,15.8,22.7,15.8,22.6c0,0.1,0,0.2,0,0.2C15.8,22.8,15.8,22.7,15.8,22.6z M14.3,19.8
	c0-0.1,0.1-0.1,0.2-0.1c0,0,0.1,0,0.1,0c0.1,0.1,0,0.2-0.1,0.2c0,0.1-0.1,0.1-0.1,0.1C14.3,20.1,14.2,19.8,14.3,19.8z M14,19.4
	c0-0.1,0.2-0.1,0.2,0c0,0,0.1,0.1,0.1,0.1c0,0,0,0.1-0.1,0.1l0.1,0c0,0.1-0.1,0.1-0.2,0.1C14,19.6,13.9,19.5,14,19.4z M13.8,18.6
	c0.1-0.1,0.1-0.2,0.1-0.3c0-0.1,0-0.1,0.1-0.2c0,0.1,0.1,0,0.1,0c0,0,0.1-0.1,0.1-0.1c0,0,0,0.1,0,0.1c0,0.1-0.1,0.1-0.1,0.2
	c0,0,0,0,0,0l0,0c0,0,0,0,0,0c-0.2-0.2-0.2,0.3-0.2,0.4c0,0-0.1,0.1-0.1,0.1C13.7,18.7,13.8,18.6,13.8,18.6z M21.2,31.8
	C21.2,31.8,21.2,31.8,21.2,31.8C21.2,31.8,21.2,31.8,21.2,31.8z M17,37.8c0,0.1,0.2,0.1,0.2,0l0,0c0.1,0,0-0.1,0-0.1
	C17.1,37.7,17,37.7,17,37.8z M14,36.4c0,0.2,0.3,0.2,0.3,0l-0.1,0c0,0,0,0,0.1,0c0-0.1-0.1-0.1-0.1-0.1C14.1,36.3,14.1,36.3,14,36.4
	z"/>
<g>
	<polygon class="st1" points="39.9,29.1 54.6,29.1 54.6,25.1 44.3,25.1 44.3,20.6 53.4,20.6 53.4,16.6 44.3,16.6 44.3,12.9 
		54.6,12.9 54.6,8.8 39.9,8.8 	"/>
	<polygon class="st1" points="74.5,8.8 69.6,8.8 65.7,15.3 61.5,8.8 56.7,8.8 63,18.8 56.6,29.1 61.4,29.1 65.6,22.4 69.7,29.1 
		74.6,29.1 68.2,18.8 	"/>
	<path class="st1" d="M91.2,10.7c-0.6-0.6-1.4-1-2.3-1.4C88,9,87,8.8,85.8,8.8h-8v20.3h4.3v-7h3.7c1.2,0,2.2-0.2,3.1-0.5
		c0.9-0.3,1.7-0.8,2.3-1.4c0.6-0.6,1.1-1.3,1.4-2.1c0.3-0.8,0.5-1.7,0.5-2.7s-0.2-1.9-0.5-2.7C92.3,12,91.8,11.2,91.2,10.7z
		 M82.1,12.8h3.6c1.1,0,1.8,0.2,2.3,0.7c0.5,0.5,0.7,1.2,0.7,2c0,0.8-0.2,1.5-0.7,2c-0.5,0.5-1.2,0.7-2.3,0.7h-3.6V12.8z"/>
	<polygon class="st1" points="101.3,8.8 96.9,8.8 96.9,29.1 110.3,29.1 110.3,24.9 101.3,24.9 	"/>
	<path class="st1" d="M128.7,14.5c-0.2-0.7-0.5-1.3-0.8-2c-0.3-0.6-0.8-1.2-1.3-1.8c-0.8-0.8-1.7-1.4-2.7-1.8c-2-0.7-4.3-0.7-6.3,0
		c-1,0.4-1.9,1-2.7,1.8c-0.6,0.6-1,1.2-1.3,1.8c-0.3,0.6-0.6,1.3-0.8,2c-0.2,0.7-0.3,1.4-0.4,2.2c-0.1,0.7-0.1,1.5-0.1,2.3
		c0,0.8,0,1.6,0.1,2.3c0.1,0.7,0.2,1.5,0.4,2.1c0.2,0.7,0.5,1.3,0.8,2c0.3,0.6,0.8,1.2,1.3,1.8c0.8,0.8,1.7,1.4,2.7,1.8
		c1,0.4,2.1,0.6,3.2,0.6s2.2-0.2,3.2-0.6c1-0.4,1.9-1,2.7-1.8c0.6-0.6,1-1.2,1.3-1.8c0.3-0.6,0.6-1.3,0.8-2c0.2-0.7,0.3-1.4,0.4-2.1
		c0.1-0.7,0.1-1.5,0.1-2.3c0-0.8,0-1.6-0.1-2.3C129,15.9,128.9,15.2,128.7,14.5z M124.7,19c0,0.4,0,0.9,0,1.4c0,0.5-0.1,1-0.2,1.4
		c-0.1,0.5-0.2,0.9-0.4,1.3c-0.2,0.4-0.4,0.8-0.7,1.1c-0.3,0.4-0.8,0.7-1.2,0.9c-1,0.4-2,0.4-3,0c-0.5-0.2-0.9-0.5-1.2-0.9
		c-0.3-0.3-0.5-0.7-0.7-1.1c-0.2-0.4-0.3-0.9-0.4-1.3c-0.1-0.5-0.1-1-0.2-1.4c0-0.5,0-1,0-1.4c0-0.4,0-0.9,0-1.4
		c0-0.5,0.1-1,0.2-1.5c0.1-0.5,0.2-0.9,0.4-1.4c0.2-0.4,0.4-0.8,0.7-1.1c0.3-0.4,0.8-0.7,1.2-0.9c0.5-0.2,1-0.3,1.5-0.3
		c0.5,0,1,0.1,1.5,0.3c0.5,0.2,0.9,0.5,1.2,0.9c0.3,0.3,0.5,0.7,0.7,1.1c0.2,0.4,0.3,0.9,0.4,1.4c0.1,0.5,0.1,1,0.2,1.5
		C124.7,18.1,124.7,18.6,124.7,19z"/>
	<path class="st1" d="M148.5,18.9c0.7-1,1-2.3,1-3.6c0-0.8-0.1-1.6-0.4-2.4c-0.3-0.8-0.7-1.5-1.3-2.1c-0.6-0.6-1.4-1.1-2.3-1.4
		c-0.9-0.4-2-0.5-3.2-0.5h-8.6v20.3h4.4v-7.3h3.6l3.2,7.3h4.8l-3.7-8.1C147.1,20.5,147.9,19.8,148.5,18.9z M145.2,15.3
		c0,0.8-0.2,1.4-0.7,1.8c-0.5,0.4-1.2,0.6-2,0.6h-4.3v-5h4.2c0.4,0,0.8,0.1,1.2,0.2c0.3,0.1,0.6,0.3,0.9,0.5
		c0.2,0.2,0.4,0.5,0.5,0.8C145.1,14.6,145.2,15,145.2,15.3z"/>
	<polygon class="st1" points="168.6,12.9 168.6,8.8 153.9,8.8 153.9,29.1 168.6,29.1 168.6,25.1 158.3,25.1 158.3,20.6 167.4,20.6 
		167.4,16.6 158.3,16.6 158.3,12.9 	"/>
</g>
</svg>
