<?xml version="1.0" encoding="utf-8"?>
<!-- Generator: Adobe Illustrator 25.2.1, SVG Export Plug-In . SVG Version: 6.00 Build 0)  -->
<svg version="1.1" id="Layer_1" xmlns="http://www.w3.org/2000/svg" xmlns:xlink="http://www.w3.org/1999/xlink" x="0px" y="0px"
	 viewBox="0 0 31.5 31.6" style="enable-background:new 0 0 31.5 31.6;" xml:space="preserve">
<style type="text/css">
	.st0{fill:#020203;stroke:#020203;stroke-miterlimit:10;}
</style>
<g id="Group_111" transform="translate(-16.61 -14.042)">
	<path id="Path_347" class="st0" d="M29.2,14.5c-6.7,0-12.1,5.4-12.1,12.1s5.4,12.1,12.1,12.1c2.8,0,5.5-1,7.6-2.7l8.9,8.9
		c0.2,0.2,0.7,0.2,0.9,0l0,0l0.9-0.9c0.2-0.2,0.2-0.7,0-0.9l0,0l-8.9-8.9c4.2-5.2,3.4-12.8-1.8-17C34.7,15.5,32,14.5,29.2,14.5
		L29.2,14.5z M29.2,36.2c-5.3,0-9.6-4.3-9.6-9.6s4.3-9.6,9.6-9.6s9.6,4.3,9.6,9.6S34.5,36.2,29.2,36.2L29.2,36.2z"/>
</g>
</svg>
