<?xml version="1.0" encoding="utf-8"?>
<!-- Generator: Adobe Illustrator 25.2.1, SVG Export Plug-In . SVG Version: 6.00 Build 0)  -->
<svg version="1.1" id="Layer_1" xmlns="http://www.w3.org/2000/svg" xmlns:xlink="http://www.w3.org/1999/xlink" x="0px" y="0px"
	 viewBox="0 0 30.6 30.6" style="enable-background:new 0 0 30.6 30.6;" xml:space="preserve">
<style type="text/css">
	.st0{fill:#FFFFFF;}
	.st1{fill:#010202;}
</style>
<g id="Group_29" transform="translate(0 30.566) rotate(-90)">
	<g id="XMLID_1_">
		<g>
			<path class="st0" d="M21.5,15.1c-1.7,1.7-3.5,3.5-5.2,5.2c-0.1,0.1-0.1,0.1-0.2,0.2c-0.6,0.5-1.5,0.4-2-0.2
				c-1.8-1.8-3.5-3.5-5.3-5.3l-0.1-0.1c-0.5-0.6-0.5-1.5,0.1-2c0.6-0.5,1.5-0.5,2,0.1c1.4,1.4,2.8,2.8,4.2,4.2
				c0.1,0.1,0.2,0.2,0.3,0.3l3.6-3.7c0.3-0.3,0.5-0.6,0.8-0.8c0.4-0.4,1.2-0.5,1.7-0.1c0.7,0.4,0.8,1.3,0.4,1.9
				C21.7,14.9,21.6,15,21.5,15.1z"/>
			<path class="st1" d="M30.6,15.3c0,8.4-6.9,15.3-15.3,15.3S0,23.7,0,15.3S6.9,0,15.3,0c4.2,0,8.1,1.7,10.8,4.5
				C28.9,7.3,30.6,11.1,30.6,15.3z M14.1,20.3c0.5,0.6,1.4,0.7,2,0.2c0.1-0.1,0.1-0.1,0.2-0.2c1.7-1.7,3.5-3.5,5.2-5.2
				c0.1-0.1,0.2-0.2,0.3-0.3c0.4-0.6,0.3-1.5-0.4-1.9c-0.5-0.4-1.3-0.3-1.7,0.1c-0.3,0.2-0.5,0.5-0.8,0.8l-3.6,3.7
				c-0.1-0.1-0.2-0.2-0.3-0.3c-1.4-1.4-2.8-2.8-4.2-4.2c-0.5-0.6-1.4-0.6-2-0.1c-0.6,0.5-0.6,1.4-0.1,2L8.8,15
				C10.6,16.8,12.3,18.5,14.1,20.3z"/>
		</g>
		<g>
		</g>
	</g>
</g>
</svg>
