<?xml version="1.0" encoding="utf-8"?>
<!-- Generator: Adobe Illustrator 25.2.1, SVG Export Plug-In . SVG Version: 6.00 Build 0)  -->
<svg version="1.1" id="Layer_1" xmlns="http://www.w3.org/2000/svg" xmlns:xlink="http://www.w3.org/1999/xlink" x="0px" y="0px"
	 viewBox="0 0 30.6 30.6" style="enable-background:new 0 0 30.6 30.6;" xml:space="preserve">
<style type="text/css">
	.st0{fill:#010202;}
	.st1{fill:#FFFFFF;}
</style>
<g id="Group_29" transform="translate(0 30.566) rotate(-90)">
	<path id="Path_3" class="st0" d="M30.6,15.3c0,8.4-6.9,15.3-15.3,15.3S0,23.7,0,15.3S6.9,0,15.3,0c0,0,0,0,0,0
		C23.8,0,30.6,6.9,30.6,15.3z M15.3,17.5c-0.1-0.1-0.2-0.2-0.3-0.3c-1.4-1.4-2.8-2.8-4.2-4.2c-0.5-0.6-1.4-0.6-2-0.1
		c-0.6,0.5-0.6,1.4-0.1,2c0,0,0.1,0.1,0.1,0.1c1.8,1.8,3.5,3.5,5.3,5.3c0.5,0.6,1.4,0.7,2,0.2c0.1-0.1,0.1-0.1,0.2-0.2
		c1.7-1.7,3.5-3.5,5.2-5.2c0.1-0.1,0.2-0.2,0.3-0.3c0.4-0.6,0.3-1.5-0.4-1.9c-0.5-0.4-1.3-0.3-1.7,0.1c-0.3,0.2-0.5,0.5-0.8,0.8
		L15.3,17.5z"/>
	<path id="Path_4" class="st1" d="M15.3,17.5l3.8-3.8c0.3-0.3,0.5-0.5,0.8-0.8c0.6-0.5,1.4-0.5,2,0.1c0.4,0.5,0.5,1.2,0.1,1.7
		c-0.1,0.1-0.2,0.2-0.3,0.3c-1.7,1.7-3.5,3.5-5.2,5.2c-0.5,0.6-1.4,0.7-2,0.2c-0.1-0.1-0.1-0.1-0.2-0.2c-1.8-1.8-3.5-3.5-5.3-5.3
		c-0.6-0.5-0.6-1.4-0.1-2c0.5-0.6,1.4-0.6,2-0.1c0,0,0.1,0.1,0.1,0.1c1.4,1.4,2.8,2.8,4.2,4.2C15.1,17.3,15.2,17.4,15.3,17.5z"/>
</g>
</svg>
