<?xml version="1.0" encoding="utf-8"?>
<!-- Generator: Adobe Illustrator 25.2.1, SVG Export Plug-In . SVG Version: 6.00 Build 0)  -->
<svg version="1.1" id="Layer_1" xmlns:serif="http://www.serif.com/"
	 xmlns="http://www.w3.org/2000/svg" xmlns:xlink="http://www.w3.org/1999/xlink" x="0px" y="0px" viewBox="0 0 300 243.8"
	 style="enable-background:new 0 0 300 243.8;" xml:space="preserve">
<path d="M94.3,243.8c113.2,0,175.1-93.8,175.1-175.1c0-2.7,0-5.3-0.2-8c12-8.7,22.4-19.5,30.7-31.9c-11.2,5-23.2,8.2-35.4,9.7
	c12.8-7.7,22.5-19.8,27.1-34c-12.1,7.2-25.3,12.2-39.1,14.9C241,7,224.7,0,207.7,0c-33.8,0-61.6,27.8-61.6,61.6
	c0,4.7,0.5,9.4,1.6,13.9C98.3,73.1,52.1,49.7,20.9,11.2C4.6,39.2,13,75.4,39.9,93.4c-9.8-0.3-19.4-2.9-27.9-7.7v0.8
	c0,29.2,20.8,54.6,49.4,60.3c-9.1,2.5-18.6,2.8-27.8,1.1c8,25,31.2,42.3,57.5,42.7C69.3,207.7,42.4,217,14.7,217
	c-4.9,0-9.8-0.3-14.7-0.9C28.1,234.2,60.9,243.8,94.3,243.8"/>
</svg>
