<?xml version="1.0" encoding="utf-8"?>
<!-- Generator: Adobe Illustrator 25.2.1, SVG Export Plug-In . SVG Version: 6.00 Build 0)  -->
<svg version="1.1" id="Layer_1" xmlns:serif="http://www.serif.com/"
	 xmlns="http://www.w3.org/2000/svg" xmlns:xlink="http://www.w3.org/1999/xlink" x="0px" y="0px" viewBox="0 0 300 210"
	 style="enable-background:new 0 0 300 210;" xml:space="preserve">
<path d="M293.7,32.8c-3.4-12.9-13.6-23.1-26.5-26.5C243.8,0,150,0,150,0S56.2,0,32.8,6.3C19.9,9.7,9.7,19.9,6.3,32.8
	C0,56.2,0,105,0,105s0,48.8,6.3,72.2c3.4,12.9,13.6,23.1,26.5,26.5C56.2,210,150,210,150,210s93.8,0,117.2-6.3
	c12.9-3.4,23.1-13.6,26.5-26.5C300,153.8,300,105,300,105S300,56.2,293.7,32.8L293.7,32.8z M120,150V60l77.9,45
	C197.9,105,120,150,120,150z"/>
</svg>
